<?xml version="1.0" encoding="UTF-8"?>
<svg xmlns="http://www.w3.org/2000/svg" xmlns:xlink="http://www.w3.org/1999/xlink" viewBox="0 0 4749.5 3951.31">
  <defs>
    <style>
      .cls-1 {
        fill: none;
      }

      .cls-2 {
        fill: url(#linear-gradient);
      }

      .cls-3 {
        isolation: isolate;
      }

      .cls-4 {
        fill: #fffefc;
      }

      .cls-5 {
        opacity: .65;
      }

      .cls-6 {
        mix-blend-mode: soft-light;
      }

      .cls-7 {
        clip-path: url(#clippath);
      }
    </style>
    <linearGradient id="linear-gradient" x1="4278.38" y1="2894.85" x2="453.22" y2="837.44" gradientUnits="userSpaceOnUse">
      <stop offset="0" stop-color="#fcb500"/>
      <stop offset="1" stop-color="#e96600"/>
    </linearGradient>
    <clipPath id="clippath">
      <rect class="cls-1" x="98.85" y="593.06" width="4365.74" height="2455.73"/>
    </clipPath>
  </defs>
  <g class="cls-3">
    <g id="Layer_2" data-name="Layer 2">
      <g id="Layer_1-2" data-name="Layer 1">
        <g>
          <rect class="cls-2" x="98.85" y="593.06" width="4365.74" height="2455.73"/>
          <g class="cls-7">
            <g>
              <g class="cls-6">
                <path class="cls-4" d="M3874.71,0c142.65,228.88,227.54,494.3,244.62,763.71,7.6,119.01,4.03,240.3-25.64,356.32-27.45,110.5-85,210.76-153.36,300.8-60.7,79.97-126.84,155.85-197.87,226.8-102.15,101.87-216.2,192.26-340.77,265.22-135.69,78.62-282.05,138.82-430.78,187.75-211.58,70.95-437.71,120.09-649.81,189.2-44.28,15.06-87.79,32.45-129.68,53.26-30.26,15.29-60.4,32.81-88.11,52.36-22.23,15.68-44.94,34.49-64.88,53.03-84.1,79.66-145.65,179.22-201.1,280.15-117.37,219.97-244.27,441.76-290.37,689.66,0,0-1.02-.18-1.02-.18,42-249.17,167.15-472.86,283.44-693.83,65.41-121.17,141.11-242.18,252.26-326.61,40.21-30.47,84.67-55.72,130.43-76.77,57.28-26.13,117.05-46.5,177.38-64.29,494.46-141,976.26-224.67,1350.49-611.5,70.72-70.95,136.11-147.25,195.78-227.7,67.05-90.05,122.82-189.88,149.44-299.53,30.08-121.3,33.02-248.1,24.15-372.3-17.45-262.33-103.42-520.32-234.57-745.55h0Z"/>
                <path class="cls-4" d="M3907.68,27.88c142.65,228.88,227.54,494.3,244.62,763.71,7.6,119.01,4.04,240.3-25.64,356.32-27.45,110.5-85,210.76-153.36,300.8-60.7,79.97-126.84,155.85-197.87,226.8-102.15,101.87-216.2,192.26-340.77,265.22-135.69,78.62-282.05,138.82-430.79,187.75-211.58,70.95-437.71,120.09-649.81,189.2-44.28,15.06-87.79,32.45-129.68,53.26-30.26,15.29-60.4,32.81-88.11,52.36-22.23,15.67-44.94,34.49-64.88,53.03-84.1,79.66-145.65,179.22-201.1,280.15-117.37,219.97-244.27,441.76-290.37,689.66,0,0-1.02-.18-1.02-.18,42-249.17,167.15-472.86,283.44-693.83,65.41-121.17,141.11-242.18,252.26-326.61,40.21-30.47,84.67-55.72,130.43-76.77,57.28-26.13,117.05-46.5,177.38-64.29,494.46-141,976.26-224.67,1350.49-611.5,70.72-70.95,136.11-147.24,195.78-227.7,67.05-90.05,122.82-189.88,149.44-299.53,30.08-121.3,33.02-248.1,24.15-372.3-17.44-262.33-103.42-520.32-234.57-745.55h0Z"/>
                <path class="cls-4" d="M3940.64,55.76c142.65,228.88,227.54,494.3,244.62,763.71,7.6,119.01,4.03,240.3-25.64,356.32-27.45,110.5-85,210.76-153.36,300.8-60.7,79.97-126.84,155.85-197.87,226.8-102.15,101.87-216.2,192.26-340.77,265.22-135.69,78.61-282.05,138.82-430.79,187.75-211.58,70.95-437.71,120.09-649.81,189.2-44.28,15.06-87.79,32.45-129.68,53.26-30.26,15.29-60.4,32.81-88.11,52.36-22.23,15.67-44.94,34.49-64.88,53.03-84.1,79.66-145.65,179.22-201.1,280.15-117.37,219.97-244.27,441.76-290.37,689.66,0,0-1.02-.18-1.02-.18,42-249.17,167.16-472.86,283.44-693.83,65.41-121.18,141.11-242.18,252.26-326.61,40.21-30.47,84.67-55.72,130.43-76.77,57.28-26.14,117.05-46.5,177.38-64.29,494.46-141,976.26-224.67,1350.49-611.5,70.72-70.95,136.11-147.25,195.78-227.7,67.05-90.05,122.82-189.88,149.44-299.53,30.08-121.3,33.02-248.09,24.15-372.3-17.45-262.33-103.42-520.32-234.57-745.55h0Z"/>
                <path class="cls-4" d="M3973.6,83.63c142.65,228.88,227.54,494.3,244.62,763.71,7.6,119.01,4.04,240.3-25.64,356.32-27.45,110.5-85,210.76-153.36,300.8-60.7,79.97-126.84,155.85-197.87,226.8-102.15,101.87-216.19,192.26-340.77,265.22-135.69,78.62-282.05,138.82-430.79,187.75-211.58,70.95-437.71,120.09-649.81,189.2-44.28,15.06-87.79,32.45-129.68,53.26-30.26,15.29-60.4,32.81-88.11,52.36-22.23,15.68-44.94,34.49-64.88,53.03-84.1,79.66-145.65,179.22-201.1,280.15-117.37,219.97-244.27,441.76-290.37,689.66,0,0-1.02-.18-1.02-.18,42.01-249.17,167.15-472.86,283.44-693.82,65.41-121.18,141.11-242.18,252.26-326.61,40.21-30.47,84.67-55.72,130.43-76.77,57.28-26.13,117.05-46.5,177.38-64.29,494.46-141,976.26-224.67,1350.49-611.5,70.72-70.95,136.11-147.25,195.78-227.7,67.05-90.05,122.82-189.88,149.44-299.53,30.08-121.3,33.02-248.09,24.15-372.3-17.44-262.33-103.42-520.32-234.57-745.55h0Z"/>
                <path class="cls-4" d="M4006.56,111.51c142.65,228.88,227.54,494.3,244.62,763.71,7.6,119.01,4.04,240.3-25.64,356.32-27.45,110.5-85,210.76-153.36,300.8-60.7,79.97-126.84,155.85-197.87,226.8-102.15,101.87-216.19,192.26-340.77,265.22-135.69,78.62-282.05,138.82-430.79,187.75-211.58,70.95-437.71,120.09-649.81,189.2-44.28,15.06-87.79,32.45-129.68,53.26-30.26,15.29-60.4,32.81-88.11,52.36-22.23,15.68-44.94,34.49-64.88,53.03-84.1,79.66-145.65,179.22-201.1,280.15-117.37,219.97-244.27,441.76-290.37,689.66,0,0-1.02-.18-1.02-.18,42.01-249.17,167.15-472.86,283.44-693.82,65.41-121.18,141.11-242.18,252.26-326.61,40.21-30.47,84.67-55.72,130.43-76.77,57.28-26.13,117.05-46.5,177.38-64.29,494.46-141,976.26-224.67,1350.49-611.5,70.72-70.95,136.11-147.24,195.78-227.7,67.05-90.05,122.82-189.88,149.44-299.53,30.08-121.3,33.02-248.09,24.15-372.3-17.45-262.33-103.42-520.32-234.57-745.55h0Z"/>
                <path class="cls-4" d="M4039.52,139.39c142.65,228.88,227.54,494.3,244.62,763.71,7.6,119.01,4.04,240.3-25.64,356.32-27.44,110.5-85,210.76-153.36,300.8-60.7,79.97-126.84,155.85-197.87,226.8-102.15,101.87-216.19,192.26-340.77,265.22-135.69,78.62-282.05,138.82-430.78,187.75-211.58,70.95-437.71,120.09-649.81,189.2-44.28,15.06-87.79,32.45-129.68,53.26-30.26,15.29-60.4,32.81-88.11,52.36-22.23,15.68-44.94,34.49-64.88,53.03-84.1,79.66-145.65,179.22-201.1,280.15-117.37,219.97-244.27,441.76-290.37,689.66,0,0-1.02-.18-1.02-.18,42.01-249.17,167.15-472.86,283.44-693.82,65.41-121.18,141.11-242.18,252.26-326.61,40.21-30.48,84.67-55.72,130.43-76.77,57.28-26.13,117.05-46.5,177.38-64.29,494.46-141,976.26-224.67,1350.49-611.5,70.72-70.95,136.11-147.24,195.78-227.7,67.05-90.05,122.82-189.88,149.44-299.53,30.08-121.3,33.02-248.1,24.15-372.3-17.45-262.33-103.42-520.32-234.57-745.55h0Z"/>
                <path class="cls-4" d="M4072.48,167.27c142.65,228.88,227.54,494.3,244.62,763.71,7.6,119.01,4.04,240.3-25.64,356.32-27.45,110.5-85,210.76-153.36,300.8-60.7,79.97-126.84,155.85-197.87,226.8-102.15,101.87-216.2,192.26-340.77,265.22-135.69,78.62-282.05,138.82-430.79,187.75-211.58,70.95-437.71,120.09-649.81,189.2-44.28,15.06-87.79,32.45-129.68,53.26-30.26,15.29-60.4,32.81-88.11,52.36-22.23,15.68-44.94,34.49-64.88,53.03-84.1,79.66-145.65,179.22-201.1,280.15-117.37,219.97-244.27,441.76-290.37,689.66,0,0-1.02-.18-1.02-.18,42.01-249.17,167.16-472.86,283.44-693.83,65.41-121.17,141.11-242.18,252.26-326.61,40.21-30.48,84.67-55.72,130.43-76.77,57.28-26.14,117.05-46.5,177.38-64.3,494.46-141,976.26-224.67,1350.49-611.5,70.72-70.95,136.11-147.25,195.78-227.7,67.05-90.05,122.82-189.88,149.44-299.53,30.08-121.3,33.02-248.1,24.15-372.3-17.45-262.33-103.42-520.32-234.57-745.55h0Z"/>
                <path class="cls-4" d="M4105.44,195.15c142.65,228.88,227.54,494.3,244.62,763.71,7.6,119.01,4.03,240.3-25.64,356.32-27.45,110.5-85,210.76-153.36,300.8-60.7,79.97-126.84,155.85-197.87,226.8-102.15,101.87-216.2,192.26-340.77,265.22-135.69,78.61-282.05,138.82-430.78,187.75-211.58,70.95-437.71,120.09-649.81,189.2-44.28,15.06-87.79,32.45-129.68,53.26-30.26,15.29-60.4,32.81-88.11,52.36-22.23,15.68-44.94,34.49-64.88,53.03-84.1,79.66-145.65,179.22-201.1,280.15-117.37,219.97-244.27,441.76-290.37,689.67,0,0-1.02-.18-1.02-.18,42-249.17,167.16-472.86,283.44-693.83,65.41-121.17,141.11-242.18,252.26-326.61,40.21-30.48,84.67-55.72,130.43-76.77,57.28-26.14,117.05-46.5,177.38-64.3,494.46-141,976.27-224.67,1350.49-611.5,70.72-70.95,136.11-147.24,195.78-227.7,67.05-90.05,122.82-189.88,149.44-299.53,30.08-121.3,33.02-248.09,24.15-372.3-17.45-262.33-103.42-520.32-234.57-745.55h0Z"/>
                <path class="cls-4" d="M4138.41,223.03c142.65,228.88,227.54,494.3,244.62,763.71,7.6,119.01,4.04,240.3-25.64,356.32-27.45,110.5-85,210.76-153.36,300.8-60.7,79.97-126.84,155.85-197.87,226.8-102.15,101.87-216.19,192.26-340.77,265.22-135.69,78.62-282.05,138.82-430.79,187.75-211.58,70.95-437.71,120.09-649.81,189.2-44.28,15.06-87.79,32.45-129.68,53.26-30.26,15.29-60.4,32.81-88.11,52.36-22.23,15.68-44.94,34.49-64.88,53.03-84.1,79.66-145.65,179.22-201.1,280.15-117.37,219.97-244.27,441.76-290.37,689.67,0,0-1.02-.18-1.02-.18,42-249.17,167.15-472.86,283.44-693.83,65.41-121.17,141.11-242.18,252.26-326.61,40.21-30.48,84.67-55.72,130.43-76.77,57.28-26.14,117.05-46.5,177.38-64.3,494.46-141,976.26-224.67,1350.49-611.5,70.72-70.95,136.11-147.25,195.78-227.7,67.05-90.05,122.82-189.88,149.44-299.53,30.08-121.3,33.02-248.09,24.15-372.3-17.44-262.33-103.42-520.32-234.57-745.55h0Z"/>
                <path class="cls-4" d="M4171.37,250.9c142.65,228.88,227.54,494.3,244.62,763.71,7.6,119.01,4.03,240.3-25.64,356.32-27.45,110.5-85,210.76-153.36,300.8-60.7,79.97-126.84,155.85-197.87,226.8-102.15,101.87-216.2,192.26-340.77,265.22-135.69,78.62-282.05,138.82-430.78,187.75-211.58,70.95-437.71,120.1-649.81,189.2-44.28,15.06-87.79,32.45-129.68,53.26-30.26,15.29-60.4,32.81-88.11,52.36-22.23,15.68-44.94,34.49-64.88,53.03-84.1,79.66-145.65,179.22-201.1,280.15-117.37,219.97-244.27,441.76-290.37,689.67,0,0-1.02-.18-1.02-.18,42-249.17,167.15-472.86,283.44-693.83,65.41-121.17,141.11-242.18,252.26-326.61,40.21-30.47,84.67-55.72,130.43-76.77,57.28-26.14,117.05-46.5,177.38-64.3,494.46-141,976.26-224.67,1350.49-611.5,70.72-70.95,136.11-147.24,195.78-227.7,67.05-90.05,122.82-189.88,149.44-299.53,30.08-121.3,33.02-248.09,24.15-372.3-17.45-262.33-103.42-520.32-234.57-745.55h0Z"/>
              </g>
              <g class="cls-6">
                <path class="cls-4" d="M4204.79,282.15c142.65,228.88,227.54,494.3,244.62,763.71,7.6,119.01,4.04,240.3-25.64,356.32-27.45,110.5-85,210.76-153.36,300.8-60.7,79.97-126.84,155.85-197.87,226.8-102.15,101.87-216.19,192.26-340.77,265.22-135.69,78.62-282.05,138.82-430.79,187.75-211.58,70.95-437.71,120.09-649.81,189.2-44.28,15.06-87.79,32.45-129.68,53.26-30.26,15.29-60.4,32.81-88.11,52.36-22.23,15.68-44.94,34.49-64.88,53.03-84.1,79.66-145.65,179.22-201.1,280.15-117.37,219.97-244.27,441.76-290.37,689.66,0,0-1.02-.18-1.02-.18,42.01-249.17,167.15-472.86,283.44-693.82,65.41-121.18,141.11-242.18,252.26-326.61,40.21-30.48,84.67-55.72,130.43-76.77,57.28-26.13,117.05-46.5,177.38-64.29,494.46-141,976.26-224.67,1350.49-611.5,70.72-70.95,136.11-147.24,195.78-227.7,67.05-90.05,122.82-189.88,149.44-299.53,30.08-121.3,33.02-248.1,24.15-372.3-17.44-262.33-103.42-520.32-234.57-745.55h0Z"/>
                <path class="cls-4" d="M4237.75,310.03c142.65,228.88,227.54,494.3,244.62,763.71,7.6,119.01,4.03,240.3-25.64,356.32-27.45,110.5-85,210.76-153.36,300.8-60.7,79.97-126.84,155.85-197.87,226.8-102.15,101.87-216.2,192.26-340.77,265.22-135.69,78.61-282.05,138.82-430.79,187.75-211.58,70.96-437.71,120.09-649.81,189.2-44.28,15.06-87.79,32.45-129.68,53.26-30.26,15.29-60.4,32.81-88.11,52.36-22.23,15.68-44.94,34.49-64.88,53.03-84.1,79.66-145.65,179.22-201.1,280.15-117.37,219.97-244.27,441.76-290.37,689.66,0,0-1.02-.18-1.02-.18,42.01-249.17,167.16-472.86,283.44-693.83,65.41-121.17,141.11-242.18,252.26-326.61,40.21-30.48,84.67-55.72,130.43-76.77,57.28-26.14,117.05-46.5,177.38-64.3,494.46-141,976.26-224.67,1350.49-611.5,70.72-70.95,136.11-147.25,195.78-227.7,67.05-90.05,122.82-189.88,149.44-299.53,30.08-121.3,33.02-248.1,24.15-372.3-17.45-262.33-103.42-520.32-234.57-745.55h0Z"/>
                <path class="cls-4" d="M4270.72,337.91c142.65,228.88,227.54,494.3,244.62,763.71,7.6,119.01,4.04,240.3-25.64,356.32-27.44,110.5-85,210.76-153.36,300.8-60.7,79.97-126.84,155.85-197.87,226.8-102.15,101.87-216.2,192.26-340.77,265.22-135.69,78.61-282.05,138.82-430.78,187.75-211.58,70.96-437.71,120.09-649.81,189.2-44.28,15.06-87.79,32.45-129.68,53.26-30.26,15.29-60.4,32.81-88.11,52.36-22.23,15.68-44.94,34.49-64.88,53.03-84.1,79.66-145.65,179.22-201.1,280.15-117.37,219.97-244.27,441.76-290.37,689.67,0,0-1.02-.18-1.02-.18,42-249.17,167.16-472.86,283.44-693.83,65.41-121.17,141.11-242.18,252.26-326.61,40.21-30.48,84.67-55.72,130.43-76.77,57.28-26.14,117.05-46.5,177.38-64.3,494.45-141,976.27-224.67,1350.49-611.5,70.72-70.95,136.11-147.24,195.78-227.7,67.05-90.05,122.82-189.88,149.44-299.53,30.08-121.3,33.02-248.09,24.15-372.3-17.45-262.33-103.42-520.32-234.57-745.55h0Z"/>
                <path class="cls-4" d="M4303.68,365.78c142.65,228.88,227.54,494.3,244.62,763.71,7.6,119.01,4.04,240.3-25.64,356.32-27.45,110.5-85,210.76-153.36,300.8-60.7,79.97-126.84,155.85-197.87,226.8-102.15,101.87-216.19,192.26-340.77,265.22-135.69,78.62-282.05,138.82-430.79,187.75-211.58,70.96-437.71,120.09-649.81,189.2-44.28,15.06-87.79,32.45-129.68,53.26-30.26,15.29-60.4,32.81-88.11,52.36-22.23,15.68-44.94,34.49-64.88,53.03-84.1,79.66-145.65,179.22-201.1,280.15-117.37,219.97-244.27,441.76-290.37,689.67,0,0-1.02-.18-1.02-.18,42-249.17,167.16-472.86,283.44-693.83,65.41-121.17,141.11-242.18,252.26-326.61,40.21-30.48,84.67-55.72,130.43-76.77,57.28-26.14,117.05-46.5,177.38-64.3,494.46-141,976.26-224.67,1350.49-611.5,70.72-70.95,136.11-147.25,195.78-227.7,67.05-90.05,122.82-189.88,149.44-299.53,30.08-121.3,33.02-248.09,24.15-372.3-17.45-262.33-103.42-520.32-234.57-745.55h0Z"/>
                <path class="cls-4" d="M4336.64,393.66c142.65,228.88,227.54,494.3,244.62,763.71,7.6,119.01,4.03,240.3-25.64,356.32-27.45,110.5-85,210.76-153.36,300.8-60.7,79.97-126.84,155.85-197.87,226.8-102.15,101.87-216.2,192.26-340.77,265.22-135.69,78.62-282.05,138.82-430.78,187.75-211.58,70.95-437.71,120.1-649.81,189.2-44.28,15.06-87.79,32.45-129.68,53.26-30.26,15.29-60.4,32.81-88.11,52.36-22.23,15.67-44.94,34.49-64.88,53.03-84.1,79.66-145.65,179.22-201.1,280.15-117.37,219.97-244.27,441.76-290.37,689.67,0,0-1.02-.18-1.02-.18,42-249.17,167.15-472.86,283.44-693.83,65.41-121.17,141.11-242.18,252.26-326.61,40.21-30.48,84.67-55.72,130.43-76.77,57.28-26.14,117.05-46.5,177.38-64.3,494.46-141,976.26-224.67,1350.49-611.5,70.72-70.95,136.11-147.24,195.78-227.7,67.05-90.05,122.82-189.88,149.44-299.53,30.08-121.3,33.02-248.09,24.15-372.3-17.45-262.33-103.42-520.32-234.57-745.55h0Z"/>
                <path class="cls-4" d="M4369.6,421.54c142.65,228.88,227.54,494.3,244.62,763.71,7.6,119.01,4.04,240.3-25.64,356.32-27.45,110.5-85,210.76-153.36,300.8-60.7,79.97-126.84,155.85-197.87,226.8-102.15,101.87-216.19,192.26-340.77,265.22-135.69,78.62-282.05,138.82-430.79,187.75-211.58,70.95-437.71,120.1-649.81,189.2-44.28,15.06-87.79,32.45-129.68,53.26-30.26,15.29-60.4,32.81-88.11,52.36-22.23,15.67-44.94,34.49-64.88,53.03-84.1,79.66-145.65,179.22-201.1,280.15-117.37,219.97-244.27,441.76-290.37,689.67,0,0-1.02-.18-1.02-.18,42-249.17,167.15-472.86,283.44-693.83,65.41-121.17,141.11-242.18,252.26-326.61,40.21-30.47,84.67-55.72,130.43-76.77,57.28-26.14,117.05-46.5,177.38-64.3,494.46-141,976.26-224.67,1350.49-611.5,70.72-70.95,136.11-147.24,195.78-227.7,67.05-90.05,122.82-189.88,149.44-299.53,30.08-121.3,33.02-248.1,24.15-372.3-17.44-262.33-103.42-520.32-234.57-745.55h0Z"/>
                <path class="cls-4" d="M4402.56,449.42c142.65,228.88,227.54,494.3,244.62,763.71,7.6,119.01,4.03,240.3-25.64,356.32-27.45,110.5-85,210.76-153.36,300.8-60.7,79.97-126.84,155.85-197.87,226.8-102.15,101.87-216.2,192.26-340.77,265.22-135.69,78.62-282.05,138.82-430.78,187.75-211.58,70.95-437.71,120.09-649.81,189.2-44.28,15.06-87.79,32.45-129.68,53.26-30.26,15.29-60.4,32.81-88.11,52.36-22.23,15.67-44.94,34.49-64.88,53.03-84.1,79.66-145.65,179.22-201.1,280.15-117.37,219.97-244.27,441.76-290.37,689.66,0,0-1.02-.18-1.02-.18,42-249.17,167.15-472.86,283.44-693.83,65.41-121.17,141.11-242.18,252.26-326.61,40.21-30.47,84.67-55.72,130.43-76.77,57.28-26.13,117.05-46.51,177.38-64.3,494.46-141,976.26-224.67,1350.49-611.5,70.72-70.95,136.11-147.25,195.78-227.7,67.05-90.05,122.82-189.88,149.44-299.53,30.08-121.3,33.02-248.1,24.15-372.3-17.45-262.33-103.42-520.32-234.57-745.55h0Z"/>
                <path class="cls-4" d="M4435.52,477.3c142.65,228.88,227.54,494.3,244.62,763.71,7.6,119.01,4.04,240.3-25.64,356.32-27.45,110.5-85,210.76-153.36,300.8-60.7,79.97-126.84,155.85-197.87,226.8-102.15,101.87-216.2,192.26-340.77,265.22-135.69,78.62-282.05,138.82-430.79,187.75-211.58,70.95-437.71,120.09-649.81,189.2-44.28,15.06-87.79,32.45-129.68,53.26-30.26,15.29-60.4,32.81-88.11,52.36-22.23,15.67-44.94,34.49-64.88,53.03-84.1,79.66-145.65,179.22-201.1,280.15-117.37,219.97-244.27,441.76-290.37,689.66,0,0-1.02-.18-1.02-.18,42-249.17,167.15-472.86,283.44-693.83,65.41-121.17,141.11-242.18,252.26-326.61,40.21-30.47,84.67-55.72,130.43-76.77,57.28-26.13,117.05-46.5,177.38-64.29,494.46-141,976.26-224.67,1350.49-611.5,70.72-70.95,136.11-147.24,195.78-227.7,67.05-90.05,122.82-189.88,149.44-299.53,30.08-121.3,33.02-248.1,24.15-372.3-17.45-262.33-103.42-520.32-234.57-745.55h0Z"/>
                <path class="cls-4" d="M4468.48,505.17c142.65,228.88,227.54,494.3,244.62,763.71,7.6,119.01,4.03,240.3-25.64,356.32-27.45,110.5-85,210.76-153.36,300.8-60.7,79.97-126.84,155.85-197.87,226.8-102.15,101.87-216.19,192.26-340.77,265.22-135.69,78.62-282.05,138.82-430.79,187.75-211.58,70.95-437.71,120.1-649.81,189.2-44.28,15.06-87.79,32.45-129.68,53.26-30.26,15.29-60.4,32.81-88.11,52.36-22.23,15.68-44.94,34.49-64.88,53.03-84.1,79.66-145.65,179.22-201.1,280.15-117.37,219.97-244.27,441.76-290.37,689.66,0,0-1.02-.18-1.02-.18,42.01-249.17,167.15-472.86,283.44-693.82,65.41-121.18,141.11-242.18,252.26-326.61,40.21-30.47,84.67-55.72,130.43-76.77,57.28-26.13,117.05-46.5,177.38-64.29,494.46-141,976.26-224.67,1350.49-611.5,70.72-70.95,136.11-147.25,195.78-227.7,67.05-90.05,122.82-189.88,149.44-299.53,30.08-121.3,33.02-248.09,24.15-372.3-17.45-262.33-103.42-520.32-234.57-745.55h0Z"/>
                <path class="cls-4" d="M4501.44,533.05c142.65,228.88,227.54,494.3,244.62,763.71,7.6,119.01,4.04,240.3-25.64,356.32-27.45,110.5-85,210.76-153.36,300.8-60.7,79.97-126.84,155.85-197.87,226.8-102.15,101.87-216.19,192.26-340.77,265.22-135.69,78.62-282.05,138.82-430.79,187.75-211.58,70.95-437.71,120.09-649.81,189.2-44.28,15.06-87.79,32.45-129.68,53.26-30.26,15.29-60.4,32.81-88.11,52.36-22.23,15.68-44.94,34.49-64.88,53.03-84.1,79.66-145.65,179.22-201.1,280.15-117.37,219.97-244.27,441.76-290.37,689.66,0,0-1.02-.18-1.02-.18,42-249.17,167.15-472.86,283.44-693.82,65.41-121.18,141.11-242.18,252.26-326.61,40.21-30.48,84.67-55.72,130.43-76.77,57.28-26.13,117.05-46.5,177.38-64.29,494.46-141,976.26-224.67,1350.49-611.5,70.72-70.95,136.11-147.24,195.78-227.7,67.05-90.05,122.82-189.88,149.44-299.53,30.08-121.3,33.02-248.09,24.15-372.3-17.44-262.33-103.42-520.32-234.57-745.55h0Z"/>
              </g>
            </g>
            <g class="cls-5">
              <polygon class="cls-4" points="4607.72 393.64 4656.77 393.64 4525.69 779.85 4476.65 779.85 4607.72 393.64"/>
              <polygon class="cls-4" points="4501.14 393.64 4550.18 393.64 4419.1 779.85 4370.06 779.85 4501.14 393.64"/>
              <polygon class="cls-4" points="4394.55 393.64 4443.59 393.64 4312.52 779.85 4263.47 779.85 4394.55 393.64"/>
              <polygon class="cls-4" points="4287.96 393.64 4337.01 393.64 4205.93 779.85 4156.89 779.85 4287.96 393.64"/>
              <polygon class="cls-4" points="4181.38 393.64 4230.42 393.64 4099.34 779.85 4050.3 779.85 4181.38 393.64"/>
              <polygon class="cls-4" points="4074.79 393.64 4123.83 393.64 3992.76 779.85 3943.71 779.85 4074.79 393.64"/>
              <polygon class="cls-4" points="3968.2 393.64 4017.25 393.64 3886.17 779.85 3837.13 779.85 3968.2 393.64"/>
              <polygon class="cls-4" points="3861.62 393.64 3910.66 393.64 3779.58 779.85 3730.54 779.85 3861.62 393.64"/>
              <polygon class="cls-4" points="3755.03 393.64 3804.07 393.64 3672.99 779.85 3623.95 779.85 3755.03 393.64"/>
              <polygon class="cls-4" points="3648.44 393.64 3697.49 393.64 3566.41 779.85 3517.36 779.85 3648.44 393.64"/>
              <polygon class="cls-4" points="3541.86 393.64 3590.9 393.64 3459.82 779.85 3410.78 779.85 3541.86 393.64"/>
              <polygon class="cls-4" points="3435.27 393.64 3484.31 393.64 3353.23 779.85 3304.19 779.85 3435.27 393.64"/>
              <polygon class="cls-4" points="3328.68 393.64 3377.73 393.64 3246.65 779.85 3197.6 779.85 3328.68 393.64"/>
              <polygon class="cls-4" points="3222.1 393.64 3271.14 393.64 3140.06 779.85 3091.02 779.85 3222.1 393.64"/>
              <polygon class="cls-4" points="3115.51 393.64 3164.55 393.64 3033.47 779.85 2984.43 779.85 3115.51 393.64"/>
              <polygon class="cls-4" points="3008.92 393.64 3057.97 393.64 2926.89 779.85 2877.84 779.85 3008.92 393.64"/>
              <polygon class="cls-4" points="2902.34 393.64 2951.38 393.64 2820.3 779.85 2771.26 779.85 2902.34 393.64"/>
              <polygon class="cls-4" points="2795.75 393.64 2844.79 393.64 2713.71 779.85 2664.67 779.85 2795.75 393.64"/>
              <polygon class="cls-4" points="2689.16 393.64 2738.21 393.64 2607.13 779.85 2558.08 779.85 2689.16 393.64"/>
              <polygon class="cls-4" points="2582.58 393.64 2631.62 393.64 2500.54 779.85 2451.5 779.85 2582.58 393.64"/>
              <polygon class="cls-4" points="2475.99 393.64 2525.03 393.64 2393.95 779.85 2344.91 779.85 2475.99 393.64"/>
              <polygon class="cls-4" points="2369.4 393.64 2418.44 393.64 2287.37 779.85 2238.32 779.85 2369.4 393.64"/>
              <polygon class="cls-4" points="2262.81 393.64 2311.86 393.64 2180.78 779.85 2131.74 779.85 2262.81 393.64"/>
              <polygon class="cls-4" points="2156.23 393.64 2205.27 393.64 2074.19 779.85 2025.15 779.85 2156.23 393.64"/>
              <polygon class="cls-4" points="2049.64 393.64 2098.68 393.64 1967.61 779.85 1918.56 779.85 2049.64 393.64"/>
              <polygon class="cls-4" points="1943.05 393.64 1992.1 393.64 1861.02 779.85 1811.98 779.85 1943.05 393.64"/>
              <polygon class="cls-4" points="1836.47 393.64 1885.51 393.64 1754.43 779.85 1705.39 779.85 1836.47 393.64"/>
              <polygon class="cls-4" points="1729.88 393.64 1778.92 393.64 1647.85 779.85 1598.8 779.85 1729.88 393.64"/>
              <polygon class="cls-4" points="1623.29 393.64 1672.34 393.64 1541.26 779.85 1492.22 779.85 1623.29 393.64"/>
              <polygon class="cls-4" points="1516.71 393.64 1565.75 393.64 1434.67 779.85 1385.63 779.85 1516.71 393.64"/>
              <polygon class="cls-4" points="1410.12 393.64 1459.16 393.64 1328.08 779.85 1279.04 779.85 1410.12 393.64"/>
              <polygon class="cls-4" points="1303.53 393.64 1352.58 393.64 1221.5 779.85 1172.45 779.85 1303.53 393.64"/>
              <polygon class="cls-4" points="1196.95 393.64 1245.99 393.64 1114.91 779.85 1065.87 779.85 1196.95 393.64"/>
              <polygon class="cls-4" points="1090.36 393.64 1139.4 393.64 1008.32 779.85 959.28 779.85 1090.36 393.64"/>
              <polygon class="cls-4" points="983.77 393.64 1032.82 393.64 901.74 779.85 852.69 779.85 983.77 393.64"/>
              <polygon class="cls-4" points="877.19 393.64 926.23 393.64 795.15 779.85 746.11 779.85 877.19 393.64"/>
              <polygon class="cls-4" points="770.6 393.64 819.64 393.64 688.56 779.85 639.52 779.85 770.6 393.64"/>
              <polygon class="cls-4" points="664.01 393.64 713.06 393.64 581.98 779.85 532.93 779.85 664.01 393.64"/>
              <polygon class="cls-4" points="557.43 393.64 606.47 393.64 475.39 779.85 426.35 779.85 557.43 393.64"/>
              <polygon class="cls-4" points="450.84 393.64 499.88 393.64 368.8 779.85 319.76 779.85 450.84 393.64"/>
              <polygon class="cls-4" points="344.25 393.64 393.3 393.64 262.22 779.85 213.17 779.85 344.25 393.64"/>
              <polygon class="cls-4" points="237.67 393.64 286.71 393.64 155.63 779.85 106.59 779.85 237.67 393.64"/>
              <polygon class="cls-4" points="131.08 393.64 180.12 393.64 49.04 779.85 0 779.85 131.08 393.64"/>
            </g>
          </g>
        </g>
      </g>
    </g>
  </g>
</svg>