<?xml version="1.0" encoding="UTF-8"?>
<svg id="Layer_2" data-name="Layer 2" xmlns="http://www.w3.org/2000/svg" viewBox="0 0 703.2 1042.92">
  <defs>
    <style>
      .cls-1 {
        fill: #e25d5d;
      }

      .cls-2 {
        fill: #ef8b58;
      }

      .cls-3 {
        fill: #c96114;
      }

      .cls-4 {
        fill: #006994;
      }

      .cls-5 {
        fill: #82bee8;
      }

      .cls-6 {
        fill: #fff;
      }

      .cls-7 {
        fill: #fcb500;
      }

      .cls-8 {
        fill: #3a3938;
      }

      .cls-9 {
        fill: #b9b9b9;
      }

      .cls-10 {
        fill: #944115;
      }
    </style>
  </defs>
  <g id="Layer_1-2" data-name="Layer 1">
    <g>
      <path class="cls-7" d="M416.54,29.29c-28.76,29.75-50.92,65.51-63.31,105.17l-30.38,1.29-33.88,5.27c23.99-53.8,67.74-100.22,127.57-111.73Z"/>
      <g>
        <path class="cls-2" d="M318.88,179.74l-7.49,5.25c-4.52,4.02-9.41,12.01-10.1,18.05-.26,2.3-.9,6.53,2.36,6.42,1.17-.04,10.73-8.96,13.75-10.54,9.87-5.14,22.75-3.81,33.16-1.17,3.02.77,7.64,4.08,10.55,2.68,5.48-2.65,1.12-12.41-1.77-15.85-1.5-1.77-3.23-2.37-4.37-3.97,42.8,3.25,85.16,12.29,126.68,22.88l-6.45,3.65c-3.19,1.86-10.27,10.97-6.38,14.01,2.54,1.98,5.96-.06,8.84-.12,14.92-.3,27.05,2.84,38.73,12.37,2.43,1.99,11.63,12.81,12.53,13.05,8.56,2.31,6.19-12.22,4.16-16.55l-5.23-10.61,55.87,25.99.76.84c-5.51,14.81-5.35,31.88-5.2,47.56.02,2.08.93,4.01.95,6.09.08,8.13-1.49,33.94.93,39.54,2.44,5.65,10.05,5.14,14.31,9.22,14.48-18.81,44.62-32.63,63.01-10.87,17.04,20.16,7.68,53.25-10.53,69.5-12.93,11.55-44.39,24.65-60.15,13.5-3.47-2.46-3.68-7.65-9.62-5.86-9.59,11.33-18.82,21.17-31.31,29.41-68.83,45.44-185.21,36.12-252.9-7.76-37.15-24.08-60.65-66.42-50.16-111.42,4.36-18.73,12.52-24.74,22.65-38.94,7.5-10.52,5.92-24.05,7.67-36.32,3.31-23.26,6.94-46.11,16.52-67.73,9.13-2.63,18.82-2.37,28.23-2.32ZM357.6,263.31c-4.26-12.63-16.13-15.84-27.05-8.11-10.34,7.32-15.97,24.45-15.22,36.75,1.1,18.13,14.41,29.22,30.36,16.22,25.61-20.87,24.16-87.17-16.7-82.69-28.06,3.08-43.45,59.69-28.09,80.01.92,1.22,2.13,2.92,3.9,2.69-.8-4.47-3.27-8.49-4.17-12.98-3.69-18.26,3.49-47.36,20.09-57.77,20.13-12.62,33.84,4.29,37.37,23.19.17.91,1.16,2.88-.48,2.68ZM495.73,334.58c11.67-3.68,18.99-21.11,20.89-32.33,10.21-60.37-56.73-74.97-73.7-16.51-3.86,13.31-5.57,35.67,6.16,45.33-.6-6.57-3.71-12.28-4.28-19.03-1.98-23.69,16.4-63.29,44.95-54.63,24.45,7.42,25.16,45.96,14.05,64.59-1.22,2.05-9.56,11.03-8.08,12.58ZM480.54,274.96c-21.7,3.76-30.13,48.93-10.04,58.01,18.03,8.15,33.35-15.8,34.02-31.41.61-14.31-7.84-29.4-23.98-26.6ZM400.62,322.17c1.88-2.63-5.57-14.03-7.8-16.21-29.06-28.38-68.89,25.14-29.05,41.37,4.51,1.84,14.82,5.25,15.42-2.21-7.05-3.22-14.41-3.81-19.86-10.07-13.56-15.57,6.52-34.3,22.61-27.01,6.78,3.07,11.93,13.63,14.4,14.71,1.1.48,3.85.04,4.29-.58ZM324.83,341.79c-3.55.49-9.1,3.7-7.62,8.06,1.13,3.34,11.78-1.79,14.4,4.02-11.27,59.39,34.96,112.56,96.91,96.95,24.13-6.08,47.01-27.03,54.91-50.67,4.8-14.38,7.6-38.8-9.45-46.04-13.36-5.67-17.66,1.92-28.43,6.4-30.12,12.54-69.41,7.01-97.66-7.89-6.1-3.22-16.16-11.79-23.06-10.84ZM630.15,347.1c-16.11,1.7-35.22,25.51-33.28,41.63.38,3.17,2.25,4.53,4.34,1.62,1.6-2.23,3.15-9.94,4.91-13.56,4.72-9.69,18.7-25.55,30.64-20.9,10.46,4.07,7.5,17.51,5.03,25.73l1.75.92c12.59-11.7,5.84-37.47-13.39-35.44Z"/>
        <path class="cls-4" d="M295.84,709.55c2.78,15.35,21.57,16.13,34.19,18.17,10.38,1.68,25.72,4.31,35.89,4.58,9.12.24,17.39-1.64,21.3-10.63,34.37,2.34,68.95-.42,102.85-6.17l2.16.46c1.72,3.05,3.21,5.91,5.41,8.68,5.65,7.12,3.29,5.17,5.97,13.39,2.36,7.24,9.47,14.19,16.44,17,3.63,1.46,11.69,2.18,13.51,3.2.72.41,1.62,2.56,2.62,3.54,1.85,1.8,8.52,7.14,9.21,8.39,2.26,4.12,6.31,31.38,7.97,38.66,5.33,23.47,11.26,46.82,17.02,70.18l-.25,1.93c-35.95,20.23-82.13,25.17-122.2,15.72l-30.6-105.34c-26.38-1.24-52.03-5.03-77.5-11.8-3.52-.94-17.69-6.15-19.61-5.94-.84.09-1.97.62-2.2,1.38-1.1,3.77,12.23,9.89,15.23,11.13,10.59,4.37,22.76,6.73,34.03,8.65-8,29.13-10.75,59.53-13.35,89.59-39.78,12.55-85.98,8.58-124.67-6.13l.72-44.35,7.09-89.26c.51-.38,9.21,9.91,9.73,3.06.13-1.74-8.93-16.11-10.5-19.46-5.94-12.69-9.76-26.64-8.92-40.78,21.56,10.69,44.86,17.37,68.46,22.16Z"/>
        <path class="cls-7" d="M274,183.25c-2.58,11.85-5.59,23.79-5.28,36.07-12.08-4.73-33.84-18.59-35.88-32.33-1.61-10.89,14.57-20.88,22.97-25.01,45.3-22.24,114.7-19.95,163.52-11.89,60.53,10,118.49,34.71,168.16,70.27,8.09,5.79,18.88,16.3,26.86,20.65,1.22.66,2.03,1.54,3.65,1.18,1.35-1.36-4.46-8.38-5.69-9.69-31.06-33.21-89.61-62.49-132.47-76.93-2.51-.85-19.16-5.16-19.26-6.18,14.78-39.81,42.1-96.04,87.37-107.03,11.62-2.82,19.17.5,30.04,4.5,80.39,29.58,121.14,111.95,113.92,194.89-1.12,12.88-6.95,32.78-6.86,44,.04,5.03,6.26,18,7.49,24.89,1.6,8.98,2.39,17.72-4.67,24.72-2.83,2.81-12.52,8.07-16.18,5.81-5.16-3.2.62-6.21,2.66-9.64,7.42-12.46-4.25-26.73-12.37-36.08-65.81-75.8-201.68-114.31-298.68-123.63-26.4-2.54-85.78-3.28-108.94,8.95-2.39,1.26-12.29,7.68-5.41,8.68,3.56.52,24.05-7.27,25.05-6.19Z"/>
        <path class="cls-4" d="M546.76,629.76c.04.58,1.39,1.88.88,3.07-5.09.96-9.45,1.1-14.53,2.63-13.94,4.19-25.27,16.79-33.2,28.46-22.38,3.68-45.21,7.58-67.93,8.55-9.28.39-33.42,1.47-41.37-.05-2.32-.45-6.56-5.47-11.7-6.78-19.28-4.92-44.23-4.22-64.13-8.7-4.1-.96-8.11,3.27-10.64,3.89-5.93,1.45-51.21-13.29-59.39-16.75-2.75-1.16-14.23-6.51-15.59-8.16-1.06-1.28-.92-1.99-.98-3.5-.24-5.81,2.64-17.31,3.88-23.49,3.43-17.09,9.89-47.32,20.39-60.55,4.57-5.75,10.78-11.33,15.85-16.7-1.06,21.11,22.17,32.53,36.49,15.37,16.2-19.43,0-47.15-24.18-32.98-.6.19-.6-.72-.42-1.3,1.47-4.65,6.68-14.29,9.21-18.95,6.86-12.64,15.52-24.26,24.73-35.22l28.51,11.04c-8.23,13.93-15.37,28.6-21.52,43.59-3.54,8.63-8.14,19.4-10.4,28.32-.62,2.44-2.32,7.13-.64,9.06l2.23,1.12c2.9-.24,10.13-23.24,11.57-23.6l111.15,13.24c.69.68-3.41,15.95-3.55,18.96-.16,3.5.26,7.24,4.47,5.27,8.95-29.34,18.66-58.74,35.3-84.79,16.56-1.64,32.51-6.56,48.25-11.58-9.62,16.47-18.11,33.88-23.99,52.11-3.04,9.43-6.84,22.25-7.57,32.02-2.4,32.11,22.32,72.13,58.84,63.67.2,4.22-.27,8.54,0,12.76ZM462.97,529.24c-26.57,3.17-24.55,46.33.64,46.48,27.45.16,29.9-50.12-.64-46.48ZM300.2,563.49c-11.26,1.2-14.95,25.39-15.62,34.61-2.9,39.55,24.23,49.26,57.87,54.72,31.1,5.05,68.46,6.09,84.54-26.69,3.76-7.66,11.71-34.25,9.39-41.73-1.93-6.25-10.58-6.3-15.89-6.98-40-5.14-80.41-7.74-120.29-13.93Z"/>
        <path class="cls-3" d="M120.91,310.82c-.03-5.89-3.63-10.75-4.88-16.67-3.44-16.23.31-30.01,12.79-40.97,2.75-2.41,12.38-7.55,13.26-8.74,1.62-2.18,4.26-14.09,6.23-18.4,2.44-5.33,6.9-13.17,12.15-16.01,6.82-3.69,19.49-3.85,22.83,4.53,4.35,10.93-3.81,20.68-5.83,30.95-3.11,15.82.7,28.78-5.73,45.3-3.42,8.79-8.72,15.17-14.74,22.19.7,3.27,7.34-.96,8.72-1.82,4.44-2.75,8-6.72,11.07-10.91,11.72,10.17,20.97,16.88,13.09,33.31-9.12,19.01-39.92,41.05-59.7,47.64-24.2,8.05-35.93-.19-36.52-25.52,3.56,1.27,23.24-6.27,20.22-10.56-4.42-1.34-9.02,1.32-13.65,1.74-26.51,2.38-44.87-11.53-52.58-36.25-.9-2.89-.92-7.76-2.33-9.98-1.97-3.11-20.34-14.38-25.16-18.84-6.43-5.95-16.44-18.41-8.36-26.88,8.79-9.21,28.92,2.89,36.9,8.9,2.42,1.82,13.58,10.89,12.81,13.56-.54,1.87-7.72,11.14-5.69,13.19,2.6.46,3.69-1.46,5.24-3.11,12.93-13.71,16.66-22.38,33.89-33.86,2.38-1.59,14.38-7.78,15.01-8.75.58-.91.45-1.68.41-2.66l-12.28,2.62c-6.25-14.66-17.8-31.73-12.81-48.39,1.78-5.96,6.55-9.86,13-8.6,15.3,2.98,25.67,39.41,33.08,51.5.34,1.05-.06,1.67-.68,2.48-1.82,2.36-8.15,5.98-11.08,9.18-10.09,11-14.33,25.87-11.47,40.53,1.27,6.49,4.85,19.27,12.8,19.31Z"/>
        <path class="cls-7" d="M559.95,32.79c-59.1,5.4-89.53,65.01-105.58,115.27-16.52-3.46-33.03-7.45-49.82-9.57-14.7-1.86-29.6-2.05-44.32-3.64,13.01-32.15,28.67-64.01,52.34-89.74,25.17-27.37,48.38-37.71,86.23-35.17,20.31,1.36,47.05,7.35,61.16,22.86Z"/>
        <path class="cls-3" d="M530.04,748.1c-27.97-4.6-20.85-31.72-10.71-49.86,1.91-3.41,5.46-6.02,5.42-9.96-5.54-.61-9.35,5.49-11.99,9.56-4.18,6.45-6.88,13.78-8.68,21.23-17.87-25.24,8.86-73.59,37.83-76.53,11.73-1.19,6.25,3.34,10.08,5.74h2.7c.87-.61,1.36-9.62,1.99-12.09,1.98-7.74,8.66-15.69,15.04-20.02,10.95,15.6,22.77,28.93,38.98,39.39,12.73,8.21,28.75,15.95,44.26,14.25-6.13,15.07-21.21,23.01-36.96,22.37-6.26-.25.96,6.5,4.33,5.85-1.8,20.78-21.64,35.21-41.08,38.4-3.58.59-7.25-.26-10.75,1.14-2.48,3.71,7.74,5.94,10.12,6.14,8.08.66,14.95-2.24,22.43-4.39,2.76,10.21-5.72,18.15-14.18,22.33-13.56,6.69-33.6,5.63-45.22-4.71-8.66-7.71-8.33-15.62-6-26.27.83-3.8,4.53-11.32,4.7-13.85.07-1.09-.3-2.78-1.33-3-3.69-.8-10.98,16.9-10.98,19.79v14.52Z"/>
        <path class="cls-9" d="M545.88,606.89l-1.46,1.18c-26.86,6.14-46.07-22.33-47.79-46.06-1.67-23.04,13.76-59.49,25.04-79.63,1.82-3.25,8.41-14.88,10.56-16.72,4.79-4.1,11.79-2.39,17.34-1.46,22.34,3.73,49.07,18.23,68.04,30.5,2.32,1.5,31.93,22.22,30.33,23.76-25.14,8.21-50.09,28.73-62.93,51.9-3.19,5.76-6.8,12.66-6.59,19.38-8.44-5.8-16.81-11.75-25.58-17.08-5.08-3.09-19.58-12.3-24.5-13.25-2.04-.39-3.8,1.54-3.41,3.37.62,2.93,17.24,13.67,20.94,15.53v28.59Z"/>
        <path class="cls-2" d="M588.97,590.61l-1.76-.45c7.68-29.63,35.55-52.26,62.93-63.53,15.27,12.96,38.14,35.57,40.01,56.52,1.75,19.64-9.54,38.9-20.39,54.37-2.75,3.93-17.09,23.15-20.52,23.48-26.75-4.47-51.86-23.47-66.25-46.04,2.45-6.18,15.02-21.33,13.94-27.41-.88-4.93-8.26-1.5-7.96,3.05Z"/>
        <path class="cls-3" d="M252.01,939.03c32.91,7.01,66.85,6.98,99.41-1.77,1.17,6.34,3.66,12.49,4.4,18.93.42,3.68.77,14.13-.17,17.41-2.46,8.61-28.77,11.56-36.46,12.81-41.99,6.8-99.2,20.34-139.79,3.66-8.55-3.51-14.11-6.15-13.6-16.29,2-39.78,46.43-53.47,76.82-32.85,2.79,1.89,14.94,13.96,16,13.9,5.11-.28-5.14-14.42-6.6-15.81Z"/>
        <path class="cls-3" d="M457.02,948.7c29.66,7.27,61.18,4.75,90.62-2.63-2.03,2.75-4.49,5.26-6.36,8.15-1.23,1.9-7.08,10.34-1.99,10.35,1.16,0,8.47-8.79,10.57-10.57,26.85-22.63,67.2-17.05,75.5,20.35,4.28,19.3-1.26,24.78-18.97,30.91-28.84,9.98-70.07,7.28-98.59-3.1-5.67-2.06-10.85-5.34-16.68-7.08-11.51-3.44-35.12-4.22-36.76-19.55-.97-9.1,1.09-17.99,2.65-26.84Z"/>
        <path class="cls-5" d="M361.99,891.51c-.57,8.09,1.35,24.71-3.51,31.24-5.06,6.8-22.29,9.67-30.49,10.86-27.21,3.96-58.27,2.42-84.57-5.8-5.62-1.75-18.19-6.43-22.13-10.42-6.08-6.15.45-22.54-.95-30.72.04-.85.56-1.95,1.38-2.15.9-.22,14.63,5.52,17.3,6.34,29.14,8.91,62.26,11.21,92.49,7.56,10.42-1.26,20.39-4.27,30.47-6.91Z"/>
        <path class="cls-5" d="M442.94,903.83c44.84,12.66,96.86,5.07,137.23-17.6,1.78,1.38,5.81,26.8,5.24,30.31-2.01,12.4-35.86,20.82-46.41,23.09-23.12,4.96-53.63,7.25-76.74,1.62-20.39-4.96-16.24-20.35-19.32-37.42Z"/>
        <path class="cls-9" d="M459.65,484.16c-9.25,15.02-16.79,32.1-21.16,49.22l-110.82-13.16c1.35-6.3,20.27-46.31,23.45-47.38,6.14-2.07,4.6,7.1,6.3,11.92,2.73,7.73,10.4,14.15,17.77,17.42,23.47,10.4,54.23,3.47,74.69-10.63,1.32-.91,9.04-8.1,9.76-7.39Z"/>
        <path class="cls-10" d="M494.84,673.32c-3.1,10.68-6.69,22.26-4.39,33.42-33.54,6.7-67.92,7.61-102.06,7.05.6-10.7,4.06-22.07,2.63-32.55l35.67.03c22.76-2.15,45.73-3.33,68.15-7.95Z"/>
        <path class="cls-10" d="M299.44,668.99l-3.44,32.48c-16.2-4.6-32.91-8.08-48.62-14.28-6.75-2.67-25.35-11.11-28.15-17.63-1.93-4.5,3.08-21.91,2.87-27.91l18.16,9.55c19.04,7.87,39.07,13.34,59.18,17.8Z"/>
        <path class="cls-10" d="M162.28,990.93c11.93,6.61,24.1,10.82,37.64,12.94,38.62,6.04,65.26-1.12,102.03-7.44,18.32-3.15,39.3-1.78,55.21-12.54,5.43,14.03-3.83,17.73-15.21,20.86-5,1.38-26.49,5.78-29.68,2.9-1-.9-1.25-3.97-3.06-4.86-4.49-2.2-16.76,5.39-21.77,7.28-28.76,10.83-65.33,11.74-95.42,6.09-12.96-2.43-36.25-7.06-29.74-25.24Z"/>
        <path class="cls-10" d="M632.09,999.73c7.02,20.41-18.2,27.39-33.24,30.53-29.33,6.13-63.43,4.45-90.99-7.91-5.35-2.4-16.08-10.81-21.19-9.24-1.77.54-2.37,3.14-4.51,3.27-4.93.3-19.54-5.67-23.67-8.88-6.37-4.95-3.69-8.3-4.1-15.68,10.7,7.39,24.39,7.82,36.27,11.67,17.77,5.76,27.81,11.9,47.87,14.59,30.38,4.09,69.43,2.38,93.57-18.35Z"/>
        <path class="cls-3" d="M305.98,713.49c-4.64-4.79-2.55-14.19-1.95-20.27.53-5.41,2.35-21.99,5.15-25.64,1.96-2.55,4.32-3.2,7.46-3.08,18.58.68,39.86,7.7,58.92,8.01,4.59,1.17,7.64,3.52,8.34,8.37.87,6.01-1.93,29.45-3.52,35.91-.61,2.47-1.72,5.28-4.06,6.5-5.96,3.11-34.59-1.29-42.8-2.58-6.13-.96-23.64-3.18-27.54-7.21ZM323.95,674.35c-4.31.98-6.34,3.45-7.47,7.56-1.16,4.22-2.97,21.39-1.54,24.81,1.71,4.11,11.09,5.2,15.19,5.92,8.13,1.44,20.77,3.5,28.79,3.76,3.29.11,6.86.55,9.26-2.16,2.92-3.3,5.17-24.43,4.18-28.87-.96-4.29-5.43-5.12-9.15-5.81l-39.26-5.22Z"/>
        <path class="cls-3" d="M90.12,249.22l-11.85,7.96-10.56,10.51c-9.22-10.43-29.7-29.45-31.21-43.63-.71-6.7,3.09-12.86,10.06-13.54,17.64-1.72,35.66,25.25,43.55,38.7Z"/>
        <path class="cls-2" d="M443.81,483.28c-17.03,14.48-51.91,21.01-70.67,6.88-4.58-3.45-7.6-8.05-7.63-13.92,25.88,4.89,51.84,8.3,78.3,7.04Z"/>
        <path class="cls-9" d="M291.38,517.8c22.76-1.29,8.35,39.93-9.4,27.44-11.41-8.03-3.01-26.74,9.4-27.44Z"/>
        <path class="cls-6" d="M327.24,229.1c23.21-4.16,35.35,18.29,34.47,39.6-.96,23.23-22.98,58.89-48.9,46.76-28.88-13.52-16.76-80.75,14.43-86.35ZM339.81,252.69c-12.14.57-12.86,21.37-1.48,22.07,12.96.8,12.4-22.59,1.48-22.07Z"/>
        <path class="cls-8" d="M324.83,341.79c6.91-.95,16.96,7.63,23.06,10.84,28.25,14.89,67.55,20.42,97.66,7.89,10.77-4.48,15.07-12.08,28.43-6.4,17.05,7.24,14.25,31.67,9.45,46.04-7.9,23.64-30.78,44.59-54.91,50.67-61.95,15.61-108.19-37.56-96.91-96.95-2.62-5.82-13.27-.69-14.4-4.02-1.48-4.37,4.07-7.58,7.62-8.06ZM470.1,361.96c-5.84-3.04-8.13.18-12.46,1.83-6.57,2.5-13.2,5.43-19.98,7.29-27.96,7.71-60.64,4.36-86.67-8.35-1.72,13.34,12.1,21.06,23.13,24.38,24.1,7.26,58.93,6.08,81.15-6.34,6.9-3.86,15.26-10.08,14.83-18.82ZM460.5,417.33c-15.28-8.41-32.35-8.7-49.08-4.73-12.87,3.06-28.89,10.67-32.64,24.35,20.1,12.83,50.01,8.61,68.85-4.85,2.48-1.77,14.89-11.88,12.87-14.77Z"/>
        <path class="cls-8" d="M357.6,263.31c1.64.2.65-1.77.48-2.68-3.52-18.9-17.24-35.82-37.37-23.19-16.6,10.41-23.78,39.51-20.09,57.77.91,4.48,3.37,8.5,4.17,12.98-1.76.23-2.97-1.47-3.9-2.69-15.36-20.32.03-76.93,28.09-80.01,40.86-4.48,42.31,61.82,16.7,82.69-15.95,13-29.26,1.91-30.36-16.22-.74-12.3,4.88-29.43,15.22-36.75,10.92-7.73,22.79-4.51,27.05,8.11ZM348.59,267.92c-6.38-6.42-17.21,7.61-8.05,12.89,7.78,4.49,12.31-8.6,8.05-12.89Z"/>
        <path class="cls-6" d="M476.85,254.08c25.1-4.16,38.24,18.29,37.28,39.6-1.04,23.23-24.86,58.89-52.89,46.76-31.23-13.52-18.13-80.75,15.61-86.35ZM490.44,277.67c-13.13.57-13.91,21.37-1.6,22.07,14.01.8,13.42-22.59,1.6-22.07Z"/>
        <path class="cls-8" d="M480.54,274.96c16.15-2.8,24.59,12.29,23.98,26.6-.67,15.61-15.99,39.56-34.02,31.41-20.09-9.08-11.66-54.25,10.04-58.01ZM489.28,290.81c-8.45.38-8.95,14.35-1.03,14.83,9.01.54,8.63-15.17,1.03-14.83Z"/>
        <path class="cls-8" d="M495.73,334.58c-1.47-1.55,6.86-10.53,8.08-12.58,11.11-18.63,10.4-57.17-14.05-64.59-28.55-8.66-46.93,30.94-44.95,54.63.56,6.75,3.68,12.46,4.28,19.03-11.73-9.66-10.03-32.02-6.16-45.33,16.96-58.46,83.91-43.86,73.7,16.51-1.9,11.23-9.22,28.65-20.89,32.33Z"/>
        <path class="cls-8" d="M400.62,322.17c-.44.62-3.19,1.06-4.29.58-2.46-1.08-7.62-11.64-14.4-14.71-16.1-7.29-36.18,11.44-22.61,27.01,5.45,6.26,12.8,6.84,19.86,10.07-.6,7.46-10.91,4.05-15.42,2.21-39.84-16.23,0-69.75,29.05-41.37,2.23,2.18,9.68,13.59,7.8,16.21Z"/>
        <path class="cls-8" d="M630.15,347.1c19.23-2.03,25.98,23.74,13.39,35.44l-1.75-.92c2.47-8.23,5.43-21.66-5.03-25.73-11.94-4.65-25.91,11.21-30.64,20.9-1.76,3.62-3.31,11.34-4.91,13.56-2.09,2.91-3.96,1.56-4.34-1.62-1.94-16.12,17.17-39.93,33.28-41.63Z"/>
        <path class="cls-8" d="M300.2,563.49c39.88,6.19,80.29,8.79,120.29,13.93,5.32.68,13.96.73,15.89,6.98,2.32,7.49-5.63,34.07-9.39,41.73-16.08,32.78-53.45,31.74-84.54,26.69-33.64-5.46-60.77-15.17-57.87-54.72.67-9.21,4.36-33.4,15.62-34.61ZM300.15,571.41c-3.67,1.11-6.98,17.6-7.54,21.52-4.72,32.63,9.32,43.56,39.31,50.2,46.25,10.23,85.24,10.26,95.81-43.53.47-2.37,2.74-11.97,1.18-12.98l-128.76-15.2Z"/>
        <path class="cls-8" d="M462.97,529.24c30.54-3.64,28.09,46.64.64,46.48-25.19-.15-27.21-43.31-.64-46.48ZM473.43,539.88c-11.99-11.69-31.66,10.96-17.65,24.24,13.84,13.12,29.19-13,17.65-24.24Z"/>
        <path class="cls-8" d="M323.95,674.35l39.26,5.22c3.72.69,8.19,1.52,9.15,5.81.99,4.44-1.27,25.58-4.18,28.87-2.39,2.71-5.96,2.27-9.26,2.16-8.01-.27-20.65-2.33-28.79-3.76-4.1-.73-13.48-1.81-15.19-5.92-1.43-3.43.38-20.59,1.54-24.81,1.13-4.11,3.17-6.58,7.47-7.56ZM365.51,686.52c-14.15-.06-28.39-2.3-42.22-5.28l-1.77,22.88,41.36,5.28,2.63-22.88Z"/>
        <path class="cls-1" d="M460.5,417.33c2.03,2.89-10.39,13-12.87,14.77-18.83,13.46-48.74,17.68-68.85,4.85,3.75-13.67,19.76-21.28,32.64-24.35,16.73-3.98,33.8-3.69,49.08,4.73Z"/>
        <path class="cls-6" d="M470.1,361.96c.43,8.75-7.92,14.97-14.83,18.82-22.22,12.41-57.05,13.59-81.15,6.34-11.02-3.32-24.85-11.04-23.13-24.38,26.02,12.71,58.7,16.06,86.67,8.35,6.78-1.87,13.41-4.79,19.98-7.29,4.33-1.65,6.62-4.88,12.46-1.83Z"/>
        <path class="cls-6" d="M348.59,267.92c4.26,4.29-.27,17.37-8.05,12.89-9.16-5.28,1.67-19.31,8.05-12.89Z"/>
        <path class="cls-6" d="M489.28,290.81c7.6-.34,7.98,15.37-1.03,14.83-7.92-.47-7.42-14.44,1.03-14.83Z"/>
        <path class="cls-4" d="M300.15,571.41l128.76,15.2c1.56,1.02-.72,10.61-1.18,12.98-10.57,53.79-49.56,53.77-95.81,43.53-29.99-6.64-44.03-17.56-39.31-50.2.57-3.92,3.87-20.42,7.54-21.52Z"/>
        <path class="cls-9" d="M473.43,539.88c11.54,11.25-3.81,37.36-17.65,24.24-14.01-13.28,5.65-35.93,17.65-24.24Z"/>
        <path class="cls-10" d="M365.51,686.52l-2.63,22.88-41.36-5.28,1.77-22.88c13.83,2.99,28.07,5.23,42.22,5.28Z"/>
        <g>
          <path class="cls-9" d="M253.8,413.3c-1.5-1.85-2.88-3.84-4.24-5.85-10.38,23.95-32.95,49.34-46.41,63.23l-3.06-2.55-8.55,10.27,58.26,43.06,3.88-8.74-.04-.03c4.06-7.59,7.28-15.77,12.98-22.3l2.58.77.02,4.47-13.68,36.03c2.28-3.6,12.93-9.96,14.46-12.37,1.38-2.18,3.95-11.8,5.61-15.5,7.94-17.7,18.06-33.91,30.07-49.1-19.79-10.37-37.79-23.97-51.89-41.39Z"/>
          <path class="cls-2" d="M242.63,397.4c-.53-.71-1.05-1.45-1.6-2.12-7.3-8.8-17.66-17.69-25.54-26.37-7.25-7.99-13.69-16.77-21.1-24.63-16.38,21.39-39.09,38.76-65.14,46.6-.65.2-1.93-.33-1.28,1.32,1.32,3.35,10.08,14.26,12.84,17.96,15.3,20.54,32.81,39.5,51.72,56.96,13.28-13.33,41.56-43.87,50.1-69.72Z"/>
        </g>
        <path class="cls-8" d="M664.64,525.95c-1.75-2.7-1.96-6.19-4-9.19-4.99-7.35-21.42-19.11-29.14-24.53-24.51-17.21-51.9-31.52-81.22-38.43,11.48-7.07,20.98-16.39,30.48-25.82,46.82,22.22,107.58-25.51,94.45-76.68,25.3-4.94,31.7-22.24,26.14-45.94-1.11-4.72-6.55-15.85-6.66-18.69-.16-4.52,3.36-15.76,4.14-21.3,4.22-30.08,5.74-58.42-.14-88.45-12.14-62.04-55.91-115.56-114.76-138.63-2.91-1.14-8.67-2.15-10.74-3.34-1.27-.73-5.58-8.6-8.83-11.41-27.45-23.7-87.47-30.86-119.98-15.26-4.1,1.96-11.94,8.31-14.59,9.17-5.19,1.67-14.4,1.97-20.45,3.3-64.87,14.3-107.34,64.48-133.15,122.88-13.27,4.97-27.04,9.2-38.54,17.77-36.17,26.92,2.9,57.46,30.28,68.15l-6.17,46.57c-3.12,6.56-8.81,10.94-13.09,16.82-17.51,24.06-19.49,54.67-12.49,82.98-5.92-6.51-12.26-12.69-18.04-19.34-3.12-3.6-16.53-18.97-17.59-22.06-.65-1.89,1.92-6.45,2.21-9.18,1.62-15.16-11.11-25.17-20.94-34.44,5.69-13.06,2.67-27.86,4.45-41,1.16-8.54,6.95-16.74,7.68-25.76,2.25-27.98-30.9-33.92-46.1-15.31-4.92,6.02-6.51,12.73-9.99,19.04-.56,1.01.05,1.49-1.95,1.12-5.64-14.34-15.48-41.83-30.46-48.29-22.46-9.69-35.55,15.36-28.5,34.21l-14.04-10.15c-31.11-14.55-44.97,17.69-26.43,40.94-12.6-5.67-31.69-4.42-35.68,11.39-3.48,13.8,5.34,24.93,15.03,33.46,4.79,4.22,17.79,11.64,20.68,15.39,1.87,2.43,3.14,11,4.58,14.77,7.04,18.43,23.21,31.21,42.52,34.9.56,20.79,10.37,39.73,33.81,38.34,19.17,29.83,42.58,57.35,68.71,81.59-.18.86-.27,1.74-.18,2.65.28,2.68,1.75,5.05,3.83,6.36l58.09,41.02.21-.3c-11.59,32.64-23.73,65.55-28.6,100.09-.23,1.65.34,3.66.01,5.09-.2.84-2.34,1.3-3.17,2.29-2.32,2.73-6.48,31.86-6.36,36.61.19,7.4,6.58,10.79,7.58,14.24,1.2,4.14.49,11.94,1.16,16.44,1.79,12.15,5.85,22.83,9.62,34.37-4.29,46.2-8.57,92.52-8.81,138.91-9.53,2.77-8.96,14.48-9.7,23.03-.36,4.2-1.24,12.94-.89,16.71.32,3.41,2.03,6.28,3.52,9.23-26.94-2.11-53.01,19.08-55.41,46.21-.96,10.84-.11,10.53-3.57,21.07-7.82,23.85,16.52,31.77,35.05,35.41,21.8,4.28,48.89,5.18,70.86,1.87,15.33-2.31,31.43-7.37,45.02-14.81,4.63,9.29,22.56,4.7,31.25,3.09,12.75-2.35,32.39-6.43,32.53-22.9.06-6.55-3.77-13.66-4.11-18.59-.39-5.63,1.04-12.76.48-19.13-.43-4.86-4.58-16.57-4.29-19.46.11-1.06,6.13-7.81,7.47-11.02,3.31-7.93,4.39-27.85,2.88-36.29-1.17-6.54-5.77-4.93-6.73-6.02-1.03-1.17,2.18-27.14,2.65-31.03.93-7.67,6.63-49.85,9.99-53.37l1.78-.88c10.57,1.78,21.4,3.23,32.11,2.65l28.16,94.6c-4.35,1.58-6.17,3.83-6.09,8.65.09,5.26,2.48,17.21,3.71,22.75,1.98,8.92,3.89,15.35,11.96,20.63-2.63,9.58-2.86,19.03-2.58,28.93.26,9.02.29,8.78-.75,17.66-1.69,14.4,2.88,20.68,15.43,26.61,5.25,2.49,17.15,6.49,22.72,6.32,2.86-.08,5.81-2.62,6.93-2.52,1.39.12,9.95,5.95,12.3,7.04,31.75,14.7,73.66,16.82,107.24,7.51,20.63-5.72,41.75-16.7,30.76-41.7-3.74-8.52-2.42-5.57-3.69-14.78-3.84-27.86-19.94-47.84-49.25-49.73,12.82-10.39,8.43-24.89,5.01-38.87-1.97-8.04-2.99-16.47-13.03-17.06l-23.65-101.54c15.85,3.58,33.27,1.73,46.17-8.83,10.73-8.78,13.15-18.2,9.65-31.65,7.57-5.24,13.72-13.88,17.36-22.28,1.12-2.59,2.61-9.91,3.8-11.15.91-.95,10.86-4.39,13.91-6.33,6.49-4.15,15.8-13.71,17.11-21.59.68-4.06-.81-6.64-.63-9.43.13-2.15,13.97-18.47,16.52-22.2,24.96-36.46,29.06-62.71.14-98.35-3.87-4.77-12.23-11.67-14.94-15.85ZM617.6,494.69c2.32,1.5,31.93,22.22,30.33,23.76-25.14,8.21-50.09,28.73-62.93,51.9-3.19,5.76-6.8,12.66-6.59,19.38-8.44-5.8-16.81-11.75-25.58-17.08-5.08-3.09-19.58-12.31-24.5-13.25-2.04-.39-3.8,1.54-3.41,3.37.62,2.94,17.24,13.67,20.94,15.53v28.59l-1.47,1.18c-26.86,6.14-46.07-22.33-47.79-46.06-1.67-23.04,13.76-59.49,25.04-79.63,1.82-3.25,8.41-14.88,10.56-16.72,4.8-4.1,11.8-2.39,17.34-1.46,22.34,3.73,49.07,18.23,68.04,30.5ZM579.23,602.58l-2.28,3.79c-9.32-2.41-15.17,5.17-21.4,10.64v-31.67l23.68,17.25ZM498.8,9.93c20.31,1.36,47.05,7.35,61.15,22.86-59.1,5.4-89.53,65.01-105.58,115.27-16.52-3.46-33.03-7.45-49.82-9.57-14.7-1.86-29.6-2.05-44.32-3.64,13.01-32.15,28.67-64.01,52.34-89.74,25.17-27.37,48.38-37.71,86.23-35.17ZM416.54,29.29c-28.76,29.75-50.92,65.51-63.31,105.17l-30.38,1.29-33.88,5.27c23.99-53.8,67.74-100.22,127.57-111.73ZM232.85,186.99c-1.61-10.89,14.57-20.88,22.97-25,45.3-22.24,114.7-19.95,163.52-11.89,60.53,10,118.49,34.71,168.16,70.27,8.09,5.79,18.88,16.3,26.86,20.65,1.22.66,2.03,1.54,3.65,1.18,1.35-1.36-4.46-8.38-5.69-9.69-31.06-33.21-89.61-62.49-132.47-76.93-2.51-.85-19.16-5.17-19.26-6.18,14.78-39.81,42.1-96.04,87.37-107.03,11.62-2.82,19.17.5,30.04,4.5,80.39,29.58,121.14,111.95,113.92,194.89-1.12,12.88-6.95,32.78-6.86,44,.04,5.03,6.26,18,7.49,24.89,1.6,8.98,2.39,17.72-4.67,24.72-2.83,2.81-12.52,8.07-16.18,5.81-5.16-3.2.62-6.21,2.66-9.64,7.42-12.46-4.25-26.73-12.37-36.08-65.81-75.8-201.68-114.31-298.68-123.63-26.4-2.54-85.78-3.28-108.94,8.95-2.39,1.26-12.29,7.68-5.41,8.68,3.56.52,24.05-7.27,25.05-6.19-2.58,11.85-5.59,23.79-5.28,36.07-12.08-4.73-33.84-18.59-35.88-32.33ZM243.81,325.06c4.36-18.73,12.52-24.74,22.65-38.94,7.5-10.52,5.92-24.05,7.67-36.32,3.31-23.26,6.94-46.11,16.52-67.73,9.13-2.63,18.82-2.37,28.23-2.32l-7.49,5.25c-4.52,4.02-9.41,12.01-10.1,18.05-.26,2.3-.9,6.53,2.36,6.42,1.17-.04,10.73-8.96,13.76-10.54,9.87-5.14,22.75-3.81,33.16-1.17,3.02.77,7.64,4.08,10.55,2.68,5.48-2.65,1.12-12.41-1.77-15.85-1.5-1.77-3.23-2.37-4.37-3.97,42.8,3.25,85.16,12.29,126.68,22.88l-6.45,3.65c-3.19,1.86-10.27,10.97-6.38,14.01,2.54,1.98,5.96-.06,8.84-.11,14.92-.3,27.05,2.84,38.73,12.37,2.43,1.99,11.63,12.81,12.53,13.05,8.56,2.31,6.19-12.22,4.16-16.55l-5.23-10.61,55.87,25.99.76.84c-5.51,14.81-5.35,31.88-5.2,47.56.02,2.08.93,4.01.95,6.09.08,8.13-1.49,33.94.93,39.54,2.44,5.65,10.05,5.14,14.31,9.22,14.48-18.81,44.62-32.63,63.01-10.87,17.04,20.16,7.68,53.25-10.53,69.5-12.93,11.55-44.38,24.65-60.15,13.5-3.47-2.46-3.68-7.65-9.62-5.86-9.59,11.33-18.82,21.17-31.31,29.41-68.83,45.44-185.21,36.12-252.9-7.76-37.15-24.08-60.65-66.42-50.16-111.42ZM375.2,502.18c23.47,10.4,54.23,3.47,74.69-10.63,1.32-.91,9.04-8.1,9.76-7.39-9.26,15.02-16.79,32.1-21.16,49.22l-110.82-13.16c1.35-6.3,20.27-46.31,23.45-47.38,6.14-2.07,4.6,7.1,6.3,11.92,2.73,7.73,10.4,14.15,17.77,17.42ZM365.51,476.24c25.88,4.89,51.84,8.3,78.3,7.04-17.03,14.48-51.91,21.01-70.67,6.88-4.58-3.45-7.6-8.05-7.63-13.92ZM269.2,491.16l-2.58-.77s-.02.02-.03.03c-1.52,1.74-2.85,3.6-4.07,5.54-.25.4-.47.82-.71,1.22-3,4.99-5.42,10.36-8.18,15.5l.04.03-1.56,3.52-55.36-39.08c11.12-10.91,40.56-41.46,52.81-69.71,1.36,2.01,2.74,4,4.24,5.85,14.1,17.42,32.1,31.02,51.89,41.39-6,7.59-11.54,15.44-16.57,23.61-5.03,8.16-9.54,16.64-13.51,25.49-.42.93-.89,2.22-1.38,3.68-1.49,4.37-3.19,10.19-4.23,11.82-1.53,2.41-12.18,8.77-14.46,12.37l13.68-36.03-.02-4.47ZM46.57,210.53c17.64-1.72,35.66,25.25,43.55,38.7l-11.85,7.96-10.56,10.51c-9.22-10.43-29.7-29.45-31.21-43.63-.71-6.7,3.09-12.86,10.06-13.54ZM93.65,355.71c3.56,1.27,23.24-6.27,20.22-10.56-4.42-1.34-9.02,1.32-13.65,1.74-26.51,2.38-44.87-11.53-52.58-36.25-.9-2.89-.92-7.76-2.33-9.98-1.97-3.11-20.34-14.38-25.16-18.84-6.43-5.95-16.43-18.41-8.36-26.88,8.79-9.21,28.92,2.89,36.9,8.9,2.42,1.82,13.58,10.89,12.81,13.56-.54,1.87-7.72,11.14-5.69,13.19,2.6.46,3.69-1.46,5.24-3.11,12.93-13.71,16.66-22.38,33.88-33.86,2.38-1.59,14.38-7.78,15.01-8.75.58-.91.45-1.68.41-2.66l-12.28,2.62c-6.25-14.66-17.8-31.73-12.81-48.39,1.78-5.96,6.55-9.86,13-8.6,15.3,2.98,25.67,39.41,33.08,51.5.34,1.06-.06,1.67-.68,2.48-1.82,2.36-8.15,5.98-11.08,9.18-10.09,11-14.33,25.87-11.47,40.53,1.27,6.49,4.85,19.27,12.8,19.31-.03-5.9-3.63-10.75-4.88-16.67-3.44-16.23.31-30.01,12.79-40.97,2.75-2.41,12.38-7.55,13.26-8.74,1.61-2.18,4.26-14.09,6.23-18.4,2.44-5.33,6.9-13.17,12.15-16.01,6.82-3.69,19.49-3.85,22.83,4.53,4.35,10.93-3.81,20.68-5.83,30.95-3.11,15.82.7,28.78-5.73,45.3-3.42,8.79-8.72,15.17-14.74,22.19.7,3.27,7.34-.96,8.72-1.82,4.44-2.75,8-6.72,11.07-10.91,11.72,10.17,20.97,16.88,13.09,33.31-9.12,19.01-39.92,41.05-59.7,47.64-24.2,8.05-35.93-.19-36.52-25.52ZM140.81,410.15c-2.76-3.7-11.52-14.61-12.84-17.96-.65-1.65.63-1.13,1.28-1.32,26.05-7.83,48.76-25.21,65.14-46.6,7.41,7.86,13.85,16.64,21.1,24.63,7.88,8.68,18.24,17.57,25.54,26.37.56.67,1.06,1.45,1.59,2.16-8.53,25.76-36.64,56.17-49.96,69.56-18.92-17.46-36.54-36.3-51.85-56.84ZM232.05,608.92c3.43-17.09,9.89-47.32,20.39-60.55,4.57-5.75,10.78-11.32,15.85-16.7-1.06,21.11,22.17,32.53,36.49,15.37,16.2-19.43,0-47.15-24.18-32.98-.6.19-.6-.72-.42-1.3,1.47-4.65,6.68-14.29,9.21-18.95,6.86-12.64,15.52-24.26,24.73-35.22l28.51,11.04c-8.23,13.93-15.37,28.6-21.52,43.59-3.54,8.63-8.14,19.4-10.4,28.32-.62,2.44-2.32,7.13-.64,9.06l2.23,1.12c2.9-.24,10.13-23.24,11.57-23.6l111.15,13.24c.69.68-3.41,15.95-3.55,18.96-.16,3.5.26,7.24,4.47,5.27,8.95-29.34,18.66-58.74,35.3-84.79,16.56-1.64,32.51-6.56,48.25-11.58-9.62,16.47-18.11,33.88-23.99,52.11-3.04,9.43-6.84,22.25-7.57,32.02-2.4,32.11,22.32,72.13,58.84,63.67.2,4.22-.27,8.54,0,12.76.04.58,1.39,1.88.88,3.07-5.09.96-9.45,1.1-14.53,2.63-13.94,4.19-25.27,16.79-33.2,28.46-22.38,3.68-45.21,7.58-67.93,8.55-9.28.39-33.42,1.47-41.37-.05-2.32-.45-6.56-5.46-11.7-6.78-19.28-4.92-44.23-4.22-64.13-8.7-4.1-.96-8.11,3.27-10.64,3.89-5.93,1.45-51.21-13.29-59.39-16.75-2.75-1.16-14.23-6.51-15.59-8.16-1.06-1.28-.91-1.99-.98-3.5-.24-5.81,2.64-17.31,3.88-23.49ZM291.38,517.8c22.76-1.29,8.35,39.93-9.39,27.44-11.41-8.03-3.02-26.74,9.39-27.44ZM490.45,706.74c-33.54,6.7-67.92,7.61-102.06,7.05.6-10.7,4.06-22.07,2.63-32.55l35.67.03c22.76-2.15,45.73-3.33,68.15-7.95-3.1,10.68-6.69,22.26-4.39,33.42ZM380.38,716.78c-.61,2.47-1.72,5.28-4.06,6.5-5.96,3.11-34.59-1.29-42.8-2.58-6.13-.96-23.64-3.18-27.54-7.21-4.64-4.79-2.55-14.19-1.95-20.27.54-5.41,2.35-21.99,5.15-25.64,1.96-2.55,4.32-3.2,7.46-3.08,18.58.68,39.86,7.7,58.92,8.01,4.59,1.17,7.64,3.52,8.34,8.37.87,6.01-1.93,29.45-3.52,35.91ZM219.23,669.56c-1.93-4.5,3.08-21.91,2.87-27.91l18.16,9.55c19.04,7.87,39.07,13.34,59.18,17.8l-3.44,32.48c-16.2-4.6-32.91-8.08-48.62-14.28-6.75-2.67-25.35-11.11-28.15-17.63ZM242.62,940.94c2.79,1.89,14.94,13.96,16,13.9,5.11-.28-5.14-14.42-6.6-15.81,32.91,7.01,66.85,6.98,99.41-1.77,1.17,6.34,3.66,12.49,4.4,18.93.42,3.68.77,14.13-.17,17.41-2.46,8.61-28.77,11.56-36.46,12.81-41.99,6.8-99.2,20.34-139.79,3.66-8.55-3.51-14.11-6.15-13.6-16.29,2-39.78,46.43-53.47,76.82-32.85ZM341.95,1004.76c-5,1.38-26.49,5.78-29.68,2.9-1-.9-1.25-3.97-3.06-4.86-4.49-2.2-16.76,5.39-21.77,7.28-28.76,10.83-65.33,11.74-95.42,6.09-12.96-2.43-36.25-7.06-29.75-25.24,11.93,6.61,24.1,10.82,37.64,12.94,38.62,6.04,65.26-1.12,102.03-7.44,18.32-3.15,39.3-1.78,55.21-12.54,5.43,14.03-3.83,17.73-15.21,20.86ZM358.48,922.75c-5.06,6.8-22.29,9.67-30.49,10.86-27.21,3.96-58.27,2.42-84.57-5.8-5.62-1.75-18.19-6.43-22.13-10.42-6.08-6.15.45-22.54-.95-30.72.04-.85.56-1.95,1.38-2.15.9-.22,14.63,5.52,17.3,6.34,29.14,8.91,62.26,11.21,92.49,7.56,10.42-1.26,20.39-4.27,30.47-6.91-.57,8.09,1.35,24.71-3.51,31.24ZM598.85,1030.26c-29.33,6.13-63.43,4.46-90.99-7.91-5.35-2.4-16.08-10.81-21.19-9.24-1.77.54-2.37,3.14-4.51,3.27-4.93.3-19.54-5.67-23.67-8.88-6.37-4.95-3.69-8.3-4.1-15.68,10.7,7.39,24.39,7.82,36.27,11.67,17.77,5.76,27.81,11.9,47.87,14.59,30.38,4.09,69.43,2.38,93.57-18.35,7.02,20.41-18.2,27.39-33.25,30.53ZM625.36,974.35c4.28,19.3-1.26,24.78-18.97,30.91-28.84,9.98-70.07,7.28-98.59-3.1-5.67-2.06-10.85-5.34-16.68-7.08-11.51-3.44-35.12-4.22-36.76-19.55-.97-9.1,1.09-17.99,2.65-26.84,29.66,7.27,61.18,4.75,90.62-2.63-2.03,2.75-4.49,5.26-6.36,8.15-1.23,1.9-7.08,10.34-1.99,10.35,1.16,0,8.47-8.79,10.58-10.57,26.85-22.63,67.2-17.05,75.5,20.35ZM580.18,886.23c1.78,1.38,5.81,26.8,5.24,30.31-2.01,12.4-35.86,20.82-46.41,23.09-23.12,4.96-53.63,7.25-76.74,1.62-20.39-4.96-16.24-20.35-19.32-37.42,44.84,12.66,96.86,5.07,137.23-17.6ZM570.36,879l-.25,1.93c-35.95,20.23-82.13,25.17-122.2,15.72l-30.6-105.34c-26.38-1.24-52.03-5.03-77.5-11.8-3.52-.94-17.69-6.15-19.61-5.94-.84.09-1.97.62-2.2,1.38-1.1,3.77,12.23,9.89,15.23,11.13,10.59,4.37,22.76,6.73,34.03,8.65-8,29.13-10.75,59.53-13.35,89.59-39.78,12.55-85.98,8.58-124.67-6.13l.73-44.35,7.09-89.26c.51-.38,9.21,9.91,9.73,3.06.13-1.74-8.93-16.11-10.5-19.46-5.94-12.69-9.76-26.64-8.92-40.78,21.56,10.69,44.86,17.37,68.46,22.16,2.78,15.35,21.57,16.13,34.19,18.17,10.38,1.68,25.72,4.31,35.89,4.58,9.12.24,17.39-1.64,21.3-10.63,34.37,2.34,68.95-.42,102.85-6.17l2.16.46c1.72,3.05,3.21,5.91,5.41,8.68,5.65,7.12,3.29,5.17,5.97,13.39,2.36,7.24,9.47,14.19,16.44,17,3.62,1.46,11.69,2.18,13.51,3.2.72.41,1.61,2.56,2.62,3.54,1.85,1.8,8.52,7.14,9.21,8.39,2.26,4.12,6.31,31.38,7.97,38.66,5.33,23.47,11.26,46.82,17.02,70.18ZM618.01,692.17c-6.26-.25.96,6.5,4.33,5.85-1.8,20.78-21.64,35.21-41.08,38.4-3.58.59-7.25-.26-10.75,1.14-2.48,3.71,7.74,5.94,10.12,6.14,8.08.66,14.95-2.24,22.43-4.39,2.76,10.21-5.71,18.15-14.18,22.33-13.56,6.69-33.6,5.63-45.22-4.71-8.66-7.71-8.33-15.62-6-26.27.83-3.8,4.53-11.32,4.7-13.85.07-1.09-.3-2.78-1.33-3-3.69-.8-10.98,16.9-10.98,19.79v14.52c-27.97-4.6-20.85-31.72-10.71-49.86,1.91-3.41,5.46-6.02,5.42-9.96-5.54-.61-9.35,5.49-11.99,9.56-4.18,6.45-6.88,13.78-8.68,21.23-17.87-25.24,8.86-73.59,37.83-76.53,11.73-1.19,6.25,3.34,10.08,5.74h2.71c.87-.61,1.36-9.62,1.99-12.09,1.98-7.74,8.66-15.69,15.04-20.02,10.95,15.6,22.77,28.93,38.98,39.39,12.73,8.21,28.75,15.95,44.26,14.25-6.13,15.07-21.21,23.01-36.96,22.37ZM669.77,637.52c-2.75,3.93-17.09,23.15-20.52,23.48-26.75-4.47-51.86-23.47-66.25-46.04,2.45-6.18,15.02-21.33,13.94-27.41-.88-4.93-8.26-1.5-7.96,3.05l-1.76-.45c7.68-29.63,35.55-52.26,62.93-63.53,15.27,12.96,38.14,35.57,40.01,56.52,1.75,19.64-9.54,38.9-20.39,54.37Z"/>
      </g>
    </g>
  </g>
</svg>