<?xml version="1.0" encoding="UTF-8"?>
<svg id="Layer_2" data-name="Layer 2" xmlns="http://www.w3.org/2000/svg" xmlns:xlink="http://www.w3.org/1999/xlink" viewBox="0 0 1536.34 1637.51">
  <defs>
    <style>
      .cls-1 {
        fill: none;
      }

      .cls-2 {
        fill: #333231;
      }

      .cls-3 {
        fill: #c15614;
      }

      .cls-4 {
        fill: #fff;
      }

      .cls-5 {
        fill: #ec804e;
      }

      .cls-6 {
        fill: #fcb500;
      }

      .cls-7 {
        fill: #005e88;
      }

      .cls-8 {
        fill: #883915;
      }

      .cls-9 {
        fill: #afafaf;
      }

      .cls-10 {
        clip-path: url(#clippath);
      }

      .cls-11 {
        fill: #dd5353;
      }
    </style>
    <clipPath id="clippath">
      <path class="cls-1" d="M1524.84,867.79c0,417.58-338.52,756.1-756.1,756.1-154.75,0-298.64-46.49-418.46-126.26C-38.96,1752.66,12.63,1130.62,12.63,867.79,12.63,450.2,384.92,0,802.5,0s722.34,450.2,722.34,867.79Z"/>
    </clipPath>
  </defs>
  <g id="Layer_1-2" data-name="Layer 1">
    <g>
      <circle class="cls-4" cx="767.6" cy="869.91" r="714.13"/>
      <path class="cls-2" d="M767.6,1637.51c-103.62,0-204.15-20.3-298.79-60.33-91.41-38.66-173.5-94.01-243.99-164.5-70.49-70.49-125.84-152.58-164.5-243.99C20.3,1074.06,0,973.53,0,869.91s20.3-204.15,60.33-298.79c38.66-91.41,94.01-173.5,164.5-243.99,70.49-70.49,152.58-125.84,243.99-164.5,94.64-40.03,195.17-60.33,298.79-60.33s204.15,20.3,298.79,60.33c91.41,38.66,173.5,94.01,243.99,164.5,70.49,70.49,125.84,152.58,164.5,243.99,40.03,94.64,60.33,195.17,60.33,298.79s-20.3,204.15-60.33,298.79c-38.66,91.41-94.01,173.5-164.5,243.99-70.49,70.49-152.58,125.84-243.99,164.5-94.64,40.03-195.17,60.33-298.79,60.33ZM767.6,125.31c-100.53,0-198.04,19.69-289.83,58.51-88.67,37.5-168.3,91.19-236.68,159.58s-122.08,148.02-159.58,236.68c-38.82,91.79-58.51,189.3-58.51,289.83s19.69,198.04,58.51,289.83c37.5,88.67,91.19,168.3,159.58,236.68s148.02,122.08,236.68,159.58c91.79,38.82,189.3,58.51,289.83,58.51s198.04-19.69,289.83-58.51c88.67-37.5,168.3-91.19,236.68-159.58s122.08-148.02,159.58-236.68c38.82-91.79,58.51-189.3,58.51-289.83s-19.69-198.04-58.51-289.83c-37.5-88.67-91.19-168.3-159.58-236.68s-148.02-122.08-236.68-159.58c-91.79-38.82-189.3-58.51-289.83-58.51Z"/>
      <g class="cls-10">
        <g>
          <path class="cls-5" d="M1077.66,520.17c-9.47,46.03-16.89,88.69-10.61,135.95.88,6.6,5.17,14.81,5.17,21.22,0,7.39-4.94,19.55-5.62,28.31-1.23,15.84.24,38.21,12.15,49.99,21.65,21.42,33.68-13.01,47.1-26.54,30.06-30.29,77.88-43.69,115.81-19.56,69.16,43.98,20.59,142.43-35.08,175.72-37.24,22.27-96.26,30.79-125.86-7.15-11.06,10.35-18.61,22.96-30.12,33.97-100.93,96.46-303.46,126.21-433.95,87.16-165.83-49.63-327.63-218.53-191.16-386.37-2.55-59.03-2.97-120.26,10.4-178.09,1.31-5.66,4.74-24.94,8.82-26.99,4.85-2.43,40.02-5.89,48.08-6.56,55.27-4.65,116.17-1.41,171.45,3.76,144.72,13.54,283.73,50.02,413.41,115.21ZM591.47,455.61c7.46-14.84-6.5-29.69-19.21-35.92-33.23-16.28-77.54-2.52-94.34,30.71-4.09,8.1-8.86,19.3-4.73,27.88,12.93-.7,20.37-13.83,33.05-20.29,15.23-7.75,35.23-11.21,52.26-9.46,11.53,1.18,21.66,7.69,32.97,7.07ZM938.26,532.96c7.86-40.5-29.14-75.15-65.38-86-17.55-5.25-79.43-10.1-77.65,19.12,1,16.44,31.56,9.48,44.04,10.73,22.23,2.23,49.08,13.88,66.13,28.1,7.13,5.95,19.79,23.61,24.45,26.43,2.74,1.66,5.21,2.61,8.42,1.62ZM587.94,580.23c-8.01-2.02-9.99-9.63-18.3-12.78-52.5-19.88-86.91,67.65-41.83,102.17,29.18,22.35,59.11-3.23,69.89-31.54,21.4-56.17-6.14-136.7-76.5-127.42-40.3,5.32-64.5,56.86-67.03,93.17-1.23,17.64-.43,51.01,20.7,55.57-18.66-48.5,4.32-133.88,68.58-126.07,25.96,3.16,37.93,23.88,44.49,46.9ZM895.1,715.96c32.46-7.53,35.9-60.48,33.98-87.72-7.46-105.81-127.22-118.22-166.22-24.76-12.21,29.25-17.51,79.14,11.61,99.29-7.04-29.99-10.66-56.99.99-86.68,15.21-38.72,59.01-65.8,99.6-46.92s44.61,72.91,33.75,112.45c-3.43,12.49-9.67,22.41-13.71,34.33ZM855.11,591.94c-62.57,4.51-70.72,103.37-16.97,119.74,72.16,21.97,95.74-125.41,16.97-119.74ZM687.79,685.81c-4.8-37.57-62.94-41.86-89.45-26.35-26.29,15.39-39.81,50.3-19.82,76.29,14.51,18.87,57.56,35.48,75.37,14.16-28.97.69-84.52-27.42-63.79-62.88,18.46-31.57,72.15-14.95,97.69-1.22ZM1228.62,815.87c25.87-19.16,17.05-59.76-10.02-73.86-48.31-25.15-105.36,43.73-95.48,89.8,3.35,6.29,7.15-9.73,7.81-10.93,4.22-7.65,11.05-18.12,16.16-25.26.94-1.32-.38-3.21,3.27-2.32,17.01,12.38,18.16,27.98,12.32,47.07,16.89-2.99,21.41-25.02,15.91-39.47-2.53-6.66-17.99-19.75-17.67-21.53,13.91-20.47,44.87-29.96,60.99-6.72,1.35,1.94,6.72,12.76,6.72,14.01v29.22ZM828.84,762.76c-.83,1.35-20.63,7.75-24.2,8.81-59.97,17.8-170.96,26.83-227.45-2.44-9.38-4.86-22.61-20.58-31.68-21.23-11.24-.8-23.09,7.91-21.83,19.92,1.12,10.63,22.47-3.9,28.6,4.06,3.13,4.07,9.71,40.05,12.54,49.21,48.66,157.64,241.55,177.65,301.55,23.55,9.9-25.43,26.42-85.6-14.19-90.5-3.16-.38-22.17,6.69-23.35,8.62Z"/>
          <path class="cls-6" d="M1342.99,739.88c-6.57,5.36-42.07,18.79-48.21,13.57-5.97-12.88,1.42-16.18,5.21-25.46,4.98-12.17,8.14-25.07,7.79-38.4l9.97,21.1,3.22,20.36c21.72-19.82.85-52.41-13.25-70.64-93.61-121.08-339.06-217.57-485.76-249.22-121.18-26.14-358.51-55.98-469.65,2.17-12.1,6.33-32.4,17.1-21.52,33.12,23.01-14.1,47.42-25.9,74.35-30.2-1.66,12.18-4.48,24.5-5.63,36.76-1.33,14.09-.07,32.4-1.89,45.27-.37,2.6,1.06,3.24-2.82,2.81-38.93-12.9-112.85-37.84-95.73-92,18.15-57.43,145.92-76.5,197.49-81.42,234.26-22.38,482.57,50.79,675.01,182.42,19.2,13.13,37.21,28.53,56.5,41.5,2.6,1.75,4.67,4.64,8.09,4.14,4-3.65-53.57-51.46-58.61-55.39-85-66.4-195.28-116.38-297.97-148.67-23.05-7.25-52.81-12.31-73.98-20.24-1.81-.68-3.59-.74-4.59-2.79,21.9-74.9,67.54-165.29,142.41-198.63,98.18-43.71,231.04,41.16,295.6,112.8,93.43,103.68,137.33,261.1,97.03,396.72,16.34,24.64,34.23,78.09,6.95,100.35Z"/>
          <path class="cls-7" d="M874.35,1256.97c3.04,56.16,35.38,109.32,84.23,137.23,25.19,14.39,48.56,19.19,76.94,22.97,2.35.31,7.25-3.38,8.34,1.14,4.12,17.14-19.83,21.38-30.68,29.36-12.27,9.03-21.07,21.29-20.34,37.16-9.62,2.05-18.58,6.55-26.74,11.89-8.63,5.65-18.06,17.64-25.99,21.13-10.01,4.4-36.45,8.26-48.38,10.04-49.45,7.4-117.42,11.51-167.17,8.04-2.99-.21-18.9-2.2-19.84-2.77-1.65-.99-4.27-8.22-7.43-11.42-9.37-9.46-29.57-10.59-42.47-12.18-25.8-3.17-57.01-6.07-82.91-7.54-16.56-.94-41.6-4.19-46.33,16.77-38.62-8.63-81.05-15.45-117.33-32.13-15.59-7.17-24.93-10.49-21.81-30.71,1.22-7.91,8.28-12.19,9.34-20.8,1.47-11.93-2.36-28.09-2-41.6.7-27.05,6.74-62.28,13.01-88.77,5.05-21.33,13.31-41.81,19.11-62.88,2.91-.7,3.02.44,4.57,2.01,14.23,14.32,18.06,23.93,41.6,26.23,50.48,4.94,70.44-34.1,78.43-77.01,66.54,3.63,133.31,7.66,200.14,7.58l2.9,2.69c-16.55,63.84,46.07,91.37,97.99,69.38l22.82-15.8ZM503.81,1457.98c40.66,40.68,179.26,46,227.38,20.49,45.73-24.24,61.93-91.38,64.02-139.54.99-22.88,1.62-38.95-23.72-44.09-45.56-9.26-115.72-6.43-163.83-7.65-34.52-.87-70.8-4.61-105.53-2.04-20.95,1.55-28.49,8.28-30.77,29.53-4.45,41.41,1.64,112.46,32.46,143.3Z"/>
          <path class="cls-9" d="M1279.48,1245.65c-33.1-13.03-72.24-8.92-105.91.54-52.95,14.87-96.68,47.01-123.14,95.58l-125.18-111.19c3.1,30.62,38.22,51.64,58.4,72.57-17.84,4.03-35.08-2.79-52.22-6.21-9.81-1.96-.65,6.51,2.61,8.71,18.97,12.81,41.35,7.6,61.97,11.52l45.06,47.14c-3.5,12.07-2.69,21.78-.87,34.02-94.49-.32-155.48-83.43-146.97-174.34,4.42-47.2,52.08-165.44,90.6-194,21.45-15.91,44.03-10.98,68.08-4.34,90.7,25.03,163.47,113.2,211.43,190,2.25,3.61,17.72,28.34,16.16,30Z"/>
          <path class="cls-3" d="M197.88,1332.36l4.34,6.03,27.69,9.03c-71.48,15.82-133.01-12.94-161.78-80.36-38.11-89.33-17.15-223.96,95.09-241.75,41.43-6.57,119.53,3.63,119.6,59.18.04,37.25-29.41,17.78-51.98,16.05-18-1.38-78.89.04-89.6,15.88-1.54,2.27-2.24,3.89-1.76,6.71,36.86-8.01,79.85-12.42,116.4-.52,21.88,7.12,32.2,22.17,27.82,45.86-6.02,32.57-24.59,16.61-47.12,14.91-23.58-1.78-61.7,1.2-83.35,11.01-2.91,1.32-16.03,7.45-11.89,11.67,34.59-1.83,108.92-18.49,134.63,11.43,9.43,10.98,8.83,31.1,2.09,43.34-9.26,16.8-17.3,5.21-32.15,3.69-26-2.66-61.45,2.99-81.93,19.8-1.34,3.23,2.8,3.67,4.69,3.7,27.26.43,53.85-15.81,84.27-6.02,24.89,8.01,22.16,33.98.22,44.39-2.29,1.09-17.23,5.97-18.53,5.97h-36.74Z"/>
          <path class="cls-6" d="M1038.3,103.34c-15.52.29-30.5-2.9-46.14-1.84-109.89,7.45-185.83,127.35-210.16,224.3-66.55-14.69-135.31-20.04-203.49-20.76,18.51-76.95,65.09-156.24,130.55-202.1,71.9-50.38,193.49-46.8,275-23.55,18.01,5.14,39.4,12.48,54.24,23.95Z"/>
          <path class="cls-5" d="M1119.32,1349.33l-25.16,18.56-19.78-19.78c27.32-59.64,108.1-98.76,172.19-91.19,13.73,1.62,33.89,32.07,40.79,44.02,19.54,33.8,26.95,63.26,14.23,101.59-10.64,32.06-66.94,116.87-97.02,131.03-41.49,19.53-110.2-8.08-137.95-41.97-11.24-13.72-16.59-19.99-8.57-36.73,6.01-12.56,66.91-99.33,61.26-105.52Z"/>
          <path class="cls-3" d="M282.68,1349.31c49.01-6.17,74.78-72.79,58.85-115.65l13.69-20.02c47.46,67.91,9.5,155.28-62.45,186.31-59.65,25.73-200.31,29.58-206.03-59.14-.14-2.15-1.57-10.26,2.77-8.43,3.5,1.48,14.34,11.7,19.23,14.71,34.11,20.98,80.02,29.91,118.88,17.85,11.67-3.62,41.37-23.9,50.34-32.58,9.1-8.8,11.91-22.5,10.2-34.7-.63-4.53-5.58-12.96-5.19-14.97.29-1.48,11.14-12.85,13.29-16.84,11.03-20.55,5.16-44.3-7.71-62.31,20.82-21.68,20.65-61.62-.06-83.49,27.14-32.64,7.83-75.28-24.06-96.44-19.72-13.09-39.42-15.69-62.28-19.7-19.01-36-24.25-113.74,22.99-129.65,38.82-13.07,68.85,12.14,69.01,51.91.11,27.35-4.35,49.58.69,78.32,13.5,77.04,75.64,99.55,45.71,190.68-4.23,12.87-10.48,25.09-19.99,34.86,6.24,13.31,10.55,23.73,9.02,39.01-3.46,34.5-23.51,49.91-43.14,73.7-1.75,2.12-4.58,3.05-3.75,6.59Z"/>
          <path class="cls-3" d="M1038.29,1453.01c-11.11,38.79,35.33,73.05,65.56,88.04,37.33,18.51,89.92,28.85,124.75.54-.07,40.36-44.89,60.04-80,60.43-11.6.13-23.14-3.56-34.92-1.99-7.63,6.8,35.52,16.16,37.66,17.88-8.99,16.92-25.41,27.55-42.81,34.47-2.18.87-27.87,6.21-25.01,9.83,22.24,9.33,49.16.12,65.01-16.91,18.18,22.96,8.4,42.08-15.35,54.36-93.24,48.19-247.21-48.25-188.74-152.98,7.91-14.16,30.85-36.95,46-42.61,3.41-1.27,2.25.87,3.03,2.23,4.38,7.64,7.38,20.36,18.42,20.21-2.85-17.93-11.89-36.78,0-53.73,2.56-3.65,22.95-23.13,26.39-19.77Z"/>
          <path class="cls-6" d="M685.91,101.43c-.38.45-7.58,3.55-10.31,5.74-58.65,47.08-98.88,125.85-119.58,197.05-47.23,4.25-94.87,6.02-141.45,15.88,29.01-69.21,78.86-131.14,142.66-171.12,39.79-24.93,82.66-38.93,127.78-51.25l.89,3.7Z"/>
          <path class="cls-7" d="M991.18,1008.15c.88,4.91-.66,2.92-2.68,3.93-50.04,25.08-78.23,86.73-95.81,137.86-8.71,25.32-16.24,81.14-32.39,97.66-27.69,28.31-86.32,25.48-91.25-20.06-3.57-32.96,24.39-97.19,40.26-127.08,7.45-14.03,41.28-69.47,53.29-74.87,10.6-4.76,63.49-19.22,75.37-20.74,18.59-2.39,34.86,3.37,53.21,3.3ZM852.98,1174.68c-21.4-19.76-60.89-2.95-69.19,22.78-18.5,57.37,59,70.46,77.76,23.12,5.52-13.94,2.74-35.45-8.57-45.9Z"/>
          <path class="cls-9" d="M623.72,1042.07c10.05,60.21,87.17,65.78,135.28,53.31,14.64-3.79,27.45-11.56,41.86-15.6-6.93,15.56-16.03,30.26-22.93,45.84-8.23,18.59-15.1,38-20.65,57.57-67.36,1.55-134.33-2.79-201.44-8.18-2.85-2.12-.93-2.37-.45-4.28,8.95-35.52,24.7-77.9,47.6-106.05,2.66,10.56,6.57,29.51,20.74,28.26-4.63-12.4-12.82-36.98-4.32-48.53,1.26-1.72.06-3.34,4.32-2.36Z"/>
          <path class="cls-5" d="M128.16,1420.97c70.03,23.27,158.53,18.74,215.71-32.11,15.42-13.72,24.82-30.62,36.78-47.07.45,11.85-8.86,28.54-9.54,38.67-.83,12.42,3.78,28.51,1.86,43.17-4.58,34.98-50.04,65.62-81.32,75.1-68.93,20.9-136.47-11.35-163.49-77.75Z"/>
          <path class="cls-8" d="M708.54,1551.01c34.14,1.29,68.52,3.19,102.78,1.96,11.89-.42,25.67-1.09,37.59-1.98,24.16-1.8,48.79-7.14,72.59-8.44-9.73,23.19-12.19,47.82-7.56,72.54-67.48,11.74-136.98,16.21-205.4,11.32v-75.4Z"/>
          <path class="cls-9" d="M531.4,1017.59l-28.2,31.13c-23.28,31.41-45.7,67.11-60.68,103.29-4.1,9.9-9.24,20.63-9.11,31.42l-7.5-42.42c-1.09-7.27,1.49-17.47-.28-24.23-2.81-10.73-8.24,11.16-8.68,13.42-5.42,27.96,4.21,53.11,1.23,76.64-1.01,8-14.67,43.77-18.59,53.03-.82,1.93-1.22,4.38-3.84,4.62.49-10.63-4.09-22.37-8.53-32.02-4.23-9.2-22.09-32.75-23.24-39.11s4.97-26.43,5.44-35.3c.93-17.51-2.84-32.89-4.85-49.95,43.63-46.53,102.81-82.52,166.82-90.53Z"/>
          <path class="cls-7" d="M616.19,1021.36l-29.79,35.19c-18.5,26.88-33.1,59.66-43.14,90.67-8.16,25.18-12.65,66.95-26.15,86.94-23.24,34.39-75.4,26.42-78.06-19.68-1.73-30.01,54.7-125.22,74.62-151.52,9.11-12.02,43.91-53.55,57.13-55.76l45.39,14.15ZM483.88,1161.27c-37.16,4.1-51.11,71.71-11.67,76.67,53.56,6.73,61.74-82.19,11.67-76.67Z"/>
          <path class="cls-3" d="M560.94,1515.92c24.07-.81,74.78,4.8,99.35,8.9,13.29,2.22,26.89,5.52,30.83,20.05,4.79,17.65,3.42,68.93.01,87.69-1.98,10.89-6.58,15.58-17.37,16.56-23.72,2.15-106.59-1.54-126.43-11.31-6.44-3.17-7.05-4.84-9.36-11.37-7.12-20.06-6.02-64.16-2.57-85.57,3.06-19.06,5.1-24.26,25.54-24.95ZM568.58,1538.25c-12.97,3.45-15.32,12.85-16.42,25.05-1.69,18.77-4.53,51.41,16.9,58.43,14.52,4.76,70.03,7.3,85.34,4.25,11.01-2.19,17.17-12.75,18.34-23.13.97-8.65,1.12-42.41-2.13-48.77-5.47-10.72-23.67-13.45-34.65-14.35-21.5-1.76-45.68-1.37-67.38-1.48Z"/>
          <ellipse class="cls-4" cx="841.29" cy="644.56" rx="81.54" ry="92.1"/>
          <ellipse class="cls-4" cx="529.51" cy="604.95" rx="71.96" ry="81.28"/>
          <path class="cls-5" d="M834.77,1030.76c.73,3.15-.98,3.83-2.84,5.63-34.76,33.67-84.86,51.4-133.52,46.91-17.97-1.66-41.86-9.26-51.79-25.48-4.04-6.6-13.97-30.91-1.3-30.92,8.21,0,26,5.99,36.16,7.36,49.97,6.75,103.96,6.43,153.29-3.5Z"/>
          <path class="cls-3" d="M1170.22,1675.41c10.69-20.76-21.12-40.3.12-55.45,6.95-4.96,15.52-6.29,21.5.84,16.34,19.45-1.2,46.85-21.62,54.62Z"/>
          <path class="cls-2" d="M828.84,762.76c1.18-1.93,20.19-9,23.35-8.62,40.62,4.9,24.09,65.07,14.19,90.5-60.01,154.1-252.9,134.08-301.55-23.55-2.83-9.16-9.41-45.14-12.54-49.21-6.13-7.96-27.49,6.57-28.6-4.06-1.26-12.01,10.59-20.72,21.83-19.92,9.06.65,22.3,16.37,31.68,21.23,56.49,29.27,167.47,20.24,227.45,2.44,3.57-1.06,23.37-7.47,24.2-8.81ZM847.96,776.32c-3.22-4.51-31.6,8.02-38.11,9.89-76.91,22.12-141.25,24.28-218.67,4.73-1.53-.39-4.78-3.38-3.22,1.33,5.94,17.87,38.52,33.47,55.5,38.74,50.01,15.52,127.23,7.02,172.33-20,12.39-7.42,30.13-19.79,32.17-34.69ZM823.48,876.21c-46.06-20.87-98.13-20.35-141.9,6-5.87,3.53-31.48,21.84-29.47,28.62.82,2.77,22.35,12.13,26.32,13.39,43.96,13.9,104.35,1.09,135.68-33.84,1.72-1.91,10.67-12.46,9.37-14.16Z"/>
          <path class="cls-2" d="M587.94,580.23c-6.56-23.02-18.53-43.74-44.49-46.9-64.25-7.81-87.24,77.58-68.58,126.07-21.12-4.56-21.93-37.94-20.7-55.57,2.53-36.31,26.73-87.85,67.03-93.17,70.35-9.28,97.9,71.24,76.5,127.42-10.78,28.3-40.71,53.89-69.89,31.54-45.07-34.52-10.67-122.05,41.83-102.17,8.31,3.15,10.28,10.76,18.3,12.78ZM560.24,615.52c12.55,15.58,37.2-7.85,21.15-22.12-15.26-13.56-31.55,9.2-21.15,22.12Z"/>
          <path class="cls-2" d="M855.11,591.94c78.77-5.67,55.19,141.7-16.97,119.74-53.75-16.36-45.6-115.23,16.97-119.74ZM868.21,616.36c-19.81,3.57-15.19,38.5,8.55,33.27,21.99-4.85,11.27-36.84-8.55-33.27Z"/>
          <path class="cls-2" d="M895.1,715.96c4.04-11.92,10.28-21.84,13.71-34.33,10.86-39.54,8.42-92.84-33.75-112.45s-84.39,8.2-99.6,46.92c-11.66,29.68-8.03,56.68-.99,86.68-29.12-20.15-23.82-70.04-11.61-99.29,39.01-93.46,158.76-81.06,166.22,24.76,1.92,27.24-1.52,80.18-33.98,87.72Z"/>
          <path class="cls-2" d="M938.26,532.96c-3.21.99-5.68.04-8.42-1.62-4.66-2.82-17.32-20.47-24.45-26.43-17.05-14.22-43.9-25.87-66.13-28.1-12.48-1.25-43.04,5.71-44.04-10.73-1.78-29.22,60.1-24.37,77.65-19.12,36.24,10.85,73.24,45.5,65.38,86Z"/>
          <path class="cls-2" d="M1228.62,815.87v-29.22c0-1.25-5.37-12.07-6.72-14.01-16.11-23.24-47.08-13.75-60.99,6.72-.32,1.78,15.14,14.87,17.67,21.53,5.5,14.46.98,36.48-15.91,39.47,5.85-19.09,4.7-34.69-12.32-47.07-3.65-.88-2.32,1.01-3.27,2.32-5.12,7.14-11.94,17.61-16.16,25.26-.66,1.2-4.46,17.22-7.81,10.93-9.89-46.06,47.17-114.95,95.48-89.8,27.08,14.1,35.89,54.69,10.02,73.86Z"/>
          <path class="cls-2" d="M591.47,455.61c-11.31.61-21.44-5.89-32.97-7.07-17.03-1.74-37.03,1.71-52.26,9.46-12.68,6.45-20.12,19.59-33.05,20.29-4.13-8.58.64-19.78,4.73-27.88,16.8-33.23,61.11-47,94.34-30.71,12.71,6.23,26.68,21.08,19.21,35.92Z"/>
          <path class="cls-2" d="M687.79,685.81c-25.53-13.73-79.23-30.35-97.69,1.22-20.74,35.47,34.81,63.57,63.79,62.88-17.8,21.32-60.86,4.7-75.37-14.16-19.99-25.99-6.47-60.91,19.82-76.29,26.5-15.51,84.65-11.22,89.45,26.35Z"/>
          <path class="cls-2" d="M503.81,1457.98c-30.83-30.84-36.91-101.89-32.46-143.3,2.28-21.25,9.83-27.99,30.77-29.53,34.73-2.56,71,1.17,105.53,2.04,48.12,1.21,118.28-1.61,163.83,7.65,25.34,5.15,24.71,21.21,23.72,44.09-2.09,48.16-18.29,115.3-64.02,139.54-48.12,25.51-186.71,20.19-227.38-20.49ZM776.17,1341.57c6.53-30.87-6.14-29.38-30.9-31.82-41.83-4.12-86.08-4.02-128.1-5.69-34.18-1.36-79.85-7.49-113.12-3.8-18.27,2.03-15.96,17.31-15.98,32.11l288.11,9.2ZM488.07,1341.78v32.99c0,25.73,17.31,64.97,38.94,79.8,36.71,25.17,146.79,26.9,187.67,11.17,43.59-16.78,55.16-68.18,59.88-109.82l-286.49-14.14Z"/>
          <path class="cls-2" d="M852.98,1174.68c11.31,10.45,14.09,31.96,8.57,45.9-18.76,47.34-96.26,34.25-77.76-23.12,8.3-25.73,47.79-42.54,69.19-22.78ZM819.22,1180.13c-16.8,2.89-30.36,24.93-23.07,41.03,15.52,34.26,70.4,1.17,51.42-32.59-5.23-9.29-18.79-10.08-28.35-8.44Z"/>
          <path class="cls-2" d="M483.88,1161.27c50.07-5.52,41.89,83.4-11.67,76.67-39.44-4.96-25.5-72.57,11.67-76.67ZM466.04,1222.44c21.3,18.83,54.26-28.54,32.44-44.7-26.05-19.29-51.7,27.67-32.44,44.7Z"/>
          <path class="cls-2" d="M568.58,1538.25c21.7.12,45.88-.28,67.38,1.48,10.98.9,29.17,3.63,34.65,14.35,3.25,6.36,3.1,40.12,2.13,48.77-1.16,10.38-7.33,20.94-18.34,23.13-15.31,3.05-70.82.51-85.34-4.25-21.42-7.02-18.58-39.67-16.9-58.43,1.1-12.2,3.44-21.6,16.42-25.05ZM659.54,1569.85c-.71-8.38-5.71-10.67-12.76-12.66-10.29-2.91-33.27-3.9-44.72-4.27-6.09-.2-23.48-1.2-27.94.29-7.96,2.66-6.97,39.28-4.16,46.9,2.97,8.08,13.43,7.91,21.05,9.09,13.14,2.04,45.11,5.51,56.88,2.68,7.16-1.72,10.08-3.78,9.76-11.85-12.77.75-38.98,2.25-35.5-17.47,2.5-14.16,26.79-13.26,37.38-12.71ZM659.55,1581.18l-19.9,1.77-.83,5.73,17.63,1.64,3.09-9.14Z"/>
          <path class="cls-11" d="M823.48,876.21c1.3,1.7-7.65,12.25-9.37,14.16-31.33,34.93-91.72,47.74-135.68,33.84-3.97-1.25-25.5-10.62-26.32-13.39-2.01-6.78,23.6-25.08,29.47-28.62,43.77-26.35,95.84-26.87,141.9-6Z"/>
          <path class="cls-4" d="M847.96,776.32c-2.04,14.9-19.78,27.27-32.17,34.69-45.1,27.02-122.32,35.53-172.33,20-16.98-5.27-49.56-20.87-55.5-38.74-1.57-4.71,1.69-1.72,3.22-1.33,77.42,19.55,141.76,17.39,218.67-4.73,6.52-1.87,34.89-14.41,38.11-9.89Z"/>
          <path class="cls-4" d="M560.24,615.52c-10.4-12.92,5.89-35.68,21.15-22.12,16.05,14.26-8.6,37.7-21.15,22.12Z"/>
          <path class="cls-4" d="M868.21,616.36c19.82-3.58,30.54,28.42,8.55,33.27-23.75,5.24-28.36-29.69-8.55-33.27Z"/>
          <path class="cls-7" d="M488.07,1341.78l286.49,14.14c-4.72,41.64-16.3,93.04-59.88,109.82-40.88,15.73-150.96,14-187.67-11.17-21.63-14.83-38.94-54.07-38.94-79.8v-32.99Z"/>
          <path class="cls-7" d="M776.17,1341.57l-288.11-9.2c.03-14.79-2.29-30.08,15.98-32.11,33.27-3.69,78.94,2.44,113.12,3.8,42.02,1.67,86.27,1.57,128.1,5.69,24.76,2.44,37.43.94,30.9,31.82Z"/>
          <path class="cls-9" d="M819.22,1180.13c9.56-1.64,23.12-.86,28.35,8.44,18.99,33.76-35.9,66.85-51.42,32.59-7.29-16.1,6.27-38.14,23.07-41.03Z"/>
          <path class="cls-9" d="M466.04,1222.44c-19.26-17.03,6.39-63.99,32.44-44.7,21.82,16.16-11.14,63.53-32.44,44.7Z"/>
          <path class="cls-8" d="M659.54,1569.85c-10.59-.55-34.88-1.45-37.38,12.71-3.48,19.72,22.73,18.22,35.5,17.47.32,8.08-2.6,10.13-9.76,11.85-11.77,2.83-43.74-.64-56.88-2.68-7.62-1.18-18.09-1.02-21.05-9.09-2.8-7.62-3.79-44.24,4.16-46.9,4.45-1.49,21.84-.49,27.94-.29,11.45.37,34.43,1.36,44.72,4.27,7.05,2,12.05,4.28,12.76,12.66Z"/>
          <polygon class="cls-3" points="659.55 1581.18 656.46 1590.32 638.82 1588.68 639.65 1582.95 659.55 1581.18"/>
          <path class="cls-8" d="M457.92,1524.62c-7.29-.93-14.8-3.48-19.08-5.11l-61.93-25.04c-3.41,17.64-12.34,60.32-.05,73.95,5.02,5.57,41.83,19.93,59.95,24.66h0s13.05,4.21,21.99,5.11c2.03,1.94,50.05,11.02,54.97,11.14,2.33.06,3.85.49,5.47-1.76l.75-69.67-62.08-13.29Z"/>
          <path class="cls-2" d="M1084.46,912.04c25.76,18.83,73.41,16.38,102.63,6.49,63.44-21.48,102.05-78.43,111.12-143.31,57.37-3.74,87.8-32,76.47-91.31-2.11-11.02-13.74-36.45-13.92-42.32-.38-12.66,8.22-42.05,9.17-58.52,11.53-199.43-81.77-375.4-264.41-459.3-9.37-4.31-26.58-8.4-34.01-13.11-5.46-3.46-12.74-14.27-21.32-20.14-83.23-56.86-223.34-55.12-315.74-24.39-29.07,9.67-49.91,13.38-79.08,20.8-120.93,30.73-220.13,121.44-263.38,237.93-47.66,16.17-121.95,44.81-114.77,107.22,5.12,44.54,57.22,67.79,94.09,81.18,5.06,1.84,24.68,5.67,26.05,9.75-.1,29.43.59,58.66,3.72,87.89-119.44,159.49-3.86,306.53,144.6,381.98,1.99,1.01,3.56-.99,2.69,3.93-53.82,5.42-105.69,25.61-149.46,56.91-13.83,9.89-27.19,24.82-39.89,33.61-1.59,1.1-1.86,2.63-4.71,1.85-12.51-26.18-28.61-47.57-35.69-76.48-13.22-53.99,14.95-144.78-58.06-160.58-88.79-19.2-110.68,92.22-79.64,154.11-50.11.16-98.85,22.63-125.14,66.15-35.68,59.07-32.71,156.03-2.09,216.65,3.41,6.75,14.4,20.29,15.65,25.8,1.85,8.18-1.84,18.44-1.46,27.86.67,16.46,6.64,36.04,16.98,48.99,4.86,6.09,16.17,12.83,18.89,16.92,4.37,6.57,8.47,26.36,14,36.89,47.95,91.2,170.7,103.61,244.04,35.78-9.47,19.67-17.61,72.75-7.27,91.17.27.48.6.94.97,1.39.77.8,1.59,1.65,2.5,2.54,1.13,1.02,2.28,2.02,3.25,3.02,5.07,4.45,12.53,9.67,25.09,15.05v-.07c42.44,17.64,88.07,26.86,133.4,34.29,2.54,7.67,8.7,16.83,15.53,21.23,15.21,9.8,73.16,13.57,93.11,14.3,16.29.6,56.82,2.92,68.78-6.75,4.24-3.43,4.59-8.47,6.64-10.33,5.82-5.27,25.92-.11,33.87.11,40.73,1.11,85.82.16,126.32-3.86,18.29-1.82,36.69-5.64,54.77-8.81,30.31,62.86,98.75,97.7,167.68,93.74,21.01-1.21,48.9-8.08,65.86-20.83,4.21-3.16,8.11-9.7,12.39-12.11,9.78-5.52,17.9-5.08,29.03-14.32,20.58-17.08,33.02-51.94,8.53-70.64,24.11-14.82,44.22-36.09,45.23-66.06.21-6.14-3.86-17.44-2.92-19.66,1-2.34,9.6-9.12,12.27-12.36,28.22-34.15,67.1-85.28,71.43-130.24,3.94-40.88-11.71-77.21-35.29-109.46l.05-4.07c19.73-11,.36-38.07-7.54-52.45-56.38-102.51-153.91-202.73-275.06-218.72l-39.94-6.19c42.97-16.64,84.44-43.61,113.98-79.16ZM984.06,79.39c18.01,5.14,39.4,12.48,54.24,23.95-15.52.29-30.5-2.9-46.14-1.84-109.89,7.45-185.83,127.35-210.16,224.3-66.55-14.69-135.31-20.04-203.49-20.76,18.51-76.95,65.09-156.24,130.55-202.1,71.9-50.38,193.49-46.8,275-23.55ZM557.24,148.99c39.79-24.93,82.66-38.93,127.78-51.25l.89,3.7c-.38.45-7.58,3.55-10.31,5.74-58.65,47.08-98.88,125.85-119.58,197.05-47.23,4.25-94.87,6.02-141.45,15.88,29.01-69.21,78.86-131.14,142.66-171.12ZM399.51,453.03c-1.33,14.09-.07,32.4-1.89,45.27-.37,2.6,1.06,3.24-2.82,2.81-38.93-12.9-112.85-37.84-95.73-92,18.15-57.43,145.92-76.5,197.49-81.42,234.26-22.38,482.57,50.79,675.01,182.42,19.2,13.13,37.21,28.53,56.5,41.5,2.6,1.75,4.67,4.64,8.09,4.14,4-3.65-53.57-51.46-58.61-55.39-85-66.4-195.28-116.38-297.97-148.67-23.05-7.25-52.81-12.31-73.98-20.24-1.81-.68-3.59-.74-4.59-2.79,21.9-74.9,67.54-165.29,142.41-198.63,98.18-43.71,231.04,41.16,295.6,112.8,93.43,103.68,137.33,261.1,97.03,396.72,16.34,24.64,34.23,78.09,6.95,100.35-6.57,5.36-42.07,18.79-48.21,13.57-5.97-12.88,1.42-16.18,5.21-25.46,4.98-12.17,8.14-25.07,7.79-38.4l9.97,21.1,3.22,20.36c21.72-19.82.85-52.41-13.25-70.64-93.61-121.08-339.06-217.57-485.76-249.22-121.18-26.14-358.51-55.98-469.65,2.17-12.1,6.33-32.4,17.1-21.52,33.12,23.01-14.1,47.42-25.9,74.35-30.2-1.66,12.18-4.48,24.5-5.63,36.76ZM570.8,1007.21l45.39,14.15-29.79,35.19c-18.5,26.88-33.1,59.66-43.14,90.67-8.16,25.18-12.65,66.95-26.15,86.94-23.24,34.39-75.4,26.42-78.06-19.68-1.73-30.01,54.7-125.22,74.62-151.52,9.11-12.02,43.91-53.55,57.13-55.76ZM759,1095.38c14.64-3.79,27.45-11.56,41.86-15.6-6.93,15.56-16.04,30.26-22.93,45.84-8.23,18.59-15.1,38-20.65,57.57-67.36,1.55-134.33-2.79-201.44-8.18-2.85-2.12-.93-2.37-.45-4.28,8.95-35.52,24.7-77.9,47.6-106.05,2.66,10.56,6.57,29.51,20.74,28.26-4.63-12.4-12.82-36.98-4.32-48.53,1.26-1.72.06-3.34,4.32-2.36,10.05,60.21,87.17,65.78,135.28,53.31ZM645.32,1026.9c8.21,0,26,5.99,36.16,7.36,49.97,6.75,103.96,6.43,153.29-3.5.73,3.15-.98,3.83-2.84,5.62-34.76,33.67-84.86,51.4-133.52,46.91-17.97-1.66-41.86-9.26-51.79-25.48-4.04-6.6-13.97-30.91-1.3-30.92ZM364.58,1108.12c43.63-46.53,102.81-82.52,166.82-90.53l-28.2,31.13c-23.28,31.41-45.7,67.11-60.68,103.29-4.1,9.9-9.24,20.63-9.11,31.42l-7.5-42.42c-1.09-7.27,1.49-17.47-.28-24.23-2.81-10.73-8.24,11.16-8.68,13.42-5.42,27.96,4.21,53.11,1.23,76.64-1.01,8-14.67,43.77-18.59,53.03-.82,1.93-1.22,4.38-3.84,4.62.49-10.63-4.09-22.37-8.53-32.02-4.23-9.2-22.09-32.75-23.24-39.11-1.13-6.24,4.97-26.43,5.44-35.3.93-17.51-2.84-32.89-4.85-49.95ZM68.12,1267.06c-38.11-89.33-17.15-223.96,95.09-241.75,41.43-6.57,119.53,3.63,119.6,59.18.04,37.25-29.41,17.78-51.98,16.05-18-1.38-78.89.04-89.6,15.88-1.54,2.27-2.24,3.89-1.76,6.71,36.86-8.01,79.85-12.42,116.4-.52,21.88,7.12,32.2,22.17,27.82,45.86-6.02,32.57-24.59,16.61-47.12,14.91-23.58-1.78-61.7,1.2-83.35,11.01-2.91,1.32-16.03,7.45-11.89,11.67,34.59-1.83,108.92-18.49,134.63,11.43,9.43,10.98,8.83,31.1,2.09,43.34-9.26,16.8-17.3,5.21-32.15,3.69-26-2.66-61.45,2.99-81.93,19.8-1.34,3.23,2.8,3.67,4.69,3.7,27.26.43,53.85-15.81,84.27-6.02,24.89,8.01,22.16,33.98.22,44.39-2.29,1.09-17.23,5.97-18.53,5.97h-36.74l4.34,6.03,27.69,9.03c-71.48,15.82-133.01-12.94-161.78-80.36ZM86.73,1340.8c-.14-2.15-1.57-10.26,2.77-8.43,3.5,1.48,14.34,11.7,19.23,14.71,34.11,20.97,80.02,29.91,118.88,17.85,11.67-3.62,41.37-23.9,50.34-32.58,9.1-8.8,11.91-22.5,10.2-34.7-.63-4.53-5.58-12.96-5.19-14.97.29-1.48,11.14-12.85,13.29-16.84,11.03-20.55,5.16-44.3-7.71-62.31,20.82-21.68,20.65-61.62-.06-83.49,27.14-32.64,7.83-75.28-24.06-96.44-19.72-13.09-39.42-15.69-62.28-19.7-19.01-36-24.25-113.74,22.99-129.65,38.82-13.07,68.85,12.14,69.01,51.91.11,27.35-4.35,49.58.69,78.32,13.5,77.04,75.64,99.55,45.71,190.68-4.23,12.87-10.48,25.09-19.99,34.86,6.24,13.31,10.55,23.73,9.02,39.01-3.46,34.5-23.51,49.91-43.14,73.7-1.75,2.13-4.58,3.05-3.75,6.59,49.01-6.17,74.78-72.79,58.85-115.65l13.69-20.02c47.46,67.91,9.5,155.28-62.45,186.31-59.65,25.73-200.31,29.58-206.03-59.14ZM291.64,1498.72c-68.93,20.9-136.47-11.35-163.49-77.75,70.03,23.27,158.53,18.74,215.71-32.11,15.42-13.72,24.82-30.62,36.78-47.07.45,11.85-8.86,28.54-9.54,38.67-.83,12.42,3.78,28.52,1.86,43.17-4.58,34.98-50.04,65.62-81.32,75.11ZM519.25,1607.58c-1.62,2.24-3.14,1.82-5.47,1.76-4.93-.13-52.94-9.2-54.97-11.14-8.94-.9-21.99-5.11-21.99-5.11h0c-18.12-4.74-54.93-19.1-59.95-24.67-12.28-13.63-3.36-56.31.05-73.95l61.93,25.04c4.28,1.63,11.79,4.18,19.08,5.11h0l62.08,13.29-.75,69.67ZM691.13,1632.56c-1.98,10.89-6.58,15.58-17.37,16.56-23.72,2.15-106.59-1.54-126.43-11.31-6.44-3.17-7.05-4.84-9.36-11.37-7.12-20.06-6.02-64.16-2.57-85.57,3.06-19.06,5.1-24.26,25.54-24.95,24.07-.81,74.78,4.8,99.35,8.9,13.29,2.22,26.89,5.52,30.83,20.05,4.79,17.65,3.42,68.93.01,87.69ZM697.3,1521.73c-9.37-9.46-29.57-10.59-42.48-12.18-25.8-3.17-57.01-6.07-82.91-7.54-16.56-.94-41.6-4.19-46.33,16.77-38.62-8.63-81.05-15.45-117.33-32.13-15.59-7.17-24.93-10.49-21.81-30.71,1.22-7.91,8.28-12.19,9.34-20.8,1.47-11.93-2.36-28.09-2-41.6.7-27.05,6.74-62.28,13.01-88.77,5.05-21.33,13.31-41.81,19.11-62.88,2.91-.7,3.02.44,4.57,2.01,14.23,14.32,18.06,23.93,41.6,26.23,50.48,4.94,70.44-34.1,78.43-77.01,66.54,3.63,133.31,7.66,200.14,7.58l2.9,2.69c-16.55,63.84,46.07,91.37,97.99,69.38l22.82-15.8c3.04,56.16,35.38,109.32,84.23,137.23,25.19,14.39,48.56,19.19,76.94,22.97,2.35.31,7.25-3.38,8.34,1.14,4.12,17.14-19.83,21.38-30.68,29.36-12.27,9.03-21.07,21.29-20.34,37.16-9.62,2.05-18.58,6.55-26.74,11.89-8.63,5.65-18.06,17.64-25.99,21.13-10.01,4.4-36.45,8.26-48.38,10.04-49.45,7.4-117.42,11.51-167.17,8.04-2.99-.21-18.9-2.2-19.84-2.77-1.65-.99-4.27-8.22-7.43-11.42ZM913.94,1615.09c-67.48,11.74-136.98,16.21-205.4,11.32v-75.4c34.14,1.29,68.52,3.19,102.78,1.96,11.89-.42,25.67-1.09,37.59-1.98,24.16-1.8,48.79-7.14,72.59-8.44-9.73,23.19-12.19,47.82-7.56,72.54ZM1170.22,1675.41c10.69-20.76-21.12-40.3.12-55.45,6.95-4.96,15.52-6.29,21.5.84,16.34,19.45-1.2,46.85-21.62,54.62ZM1148.6,1602.02c-11.6.13-23.14-3.56-34.92-1.99-7.63,6.8,35.52,16.16,37.66,17.88-8.99,16.92-25.41,27.55-42.81,34.47-2.18.87-27.87,6.21-25.01,9.83,22.24,9.33,49.16.12,65.01-16.91,18.18,22.96,8.4,42.08-15.35,54.36-93.24,48.19-247.21-48.25-188.74-152.98,7.91-14.17,30.85-36.95,46-42.61,3.41-1.27,2.25.87,3.03,2.23,4.38,7.64,7.38,20.36,18.42,20.21-2.85-17.93-11.89-36.78,0-53.73,2.56-3.65,22.95-23.13,26.39-19.77-11.11,38.79,35.33,73.05,65.56,88.04,37.33,18.51,89.92,28.85,124.75.54-.07,40.36-44.89,60.04-80,60.43ZM1287.36,1300.93c19.54,33.8,26.95,63.26,14.23,101.59-10.64,32.06-66.94,116.87-97.02,131.03-41.49,19.53-110.2-8.08-137.95-41.97-11.24-13.72-16.59-19.99-8.57-36.73,6.01-12.56,66.91-99.33,61.26-105.52l-25.16,18.56-19.78-19.78c27.32-59.64,108.1-98.76,172.19-91.19,13.73,1.62,33.89,32.07,40.79,44.02ZM1077.88,1391.78c-.93,2.84-8.5,14.28-11.29,12.2-12.9-22.59-12.91-29.06,11.29-12.2ZM1051.9,1025.64c90.7,25.03,163.47,113.2,211.43,190,2.25,3.61,17.72,28.34,16.16,30-33.1-13.03-72.24-8.92-105.91.54-52.95,14.87-96.68,47.01-123.14,95.58l-125.18-111.19c3.1,30.62,38.22,51.64,58.4,72.57-17.84,4.03-35.08-2.79-52.22-6.21-9.81-1.96-.65,6.51,2.61,8.71,18.97,12.81,41.35,7.6,61.97,11.52l45.06,47.14c-3.5,12.07-2.69,21.78-.87,34.02-94.49-.32-155.48-83.43-146.97-174.34,4.42-47.2,52.08-165.44,90.6-194,21.45-15.91,44.03-10.98,68.08-4.34ZM991.18,1008.15c.88,4.91-.66,2.92-2.68,3.93-50.04,25.08-78.23,86.73-95.81,137.86-8.71,25.32-16.24,81.14-32.39,97.66-27.68,28.31-86.32,25.48-91.25-20.06-3.57-32.96,24.39-97.19,40.26-127.08,7.45-14.03,41.28-69.47,53.29-74.87,10.6-4.76,63.49-19.21,75.37-20.74,18.59-2.39,34.86,3.37,53.21,3.3ZM616.65,999.21c-165.83-49.63-327.63-218.53-191.16-386.37-2.55-59.03-2.97-120.26,10.4-178.09,1.31-5.66,4.74-24.94,8.82-26.99,4.85-2.43,40.02-5.89,48.08-6.56,55.27-4.65,116.17-1.41,171.45,3.76,144.72,13.54,283.73,50.03,413.41,115.21-9.47,46.03-16.89,88.69-10.61,135.95.88,6.6,5.17,14.81,5.17,21.22,0,7.39-4.94,19.55-5.62,28.31-1.23,15.84.24,38.21,12.15,49.99,21.65,21.42,33.68-13.01,47.1-26.54,30.06-30.29,77.88-43.69,115.81-19.56,69.16,43.98,20.59,142.43-35.08,175.72-37.24,22.27-96.26,30.79-125.86-7.15-11.06,10.35-18.61,22.96-30.12,33.97-100.93,96.46-303.46,126.21-433.95,87.16Z"/>
        </g>
      </g>
      <path class="cls-2" d="M768.74,1635.39c-151.96,0-298.87-44.33-424.84-128.19l12.75-19.15c122.18,81.34,264.68,124.33,412.09,124.33,100.53,0,198.04-19.69,289.83-58.51,88.67-37.5,168.3-91.19,236.68-159.58s122.08-148.02,159.58-236.68c38.82-91.79,58.51-189.3,58.51-289.83h23c0,103.62-20.3,204.15-60.33,298.79-38.66,91.41-94.01,173.5-164.5,243.99-70.49,70.49-152.58,125.84-243.99,164.5-94.64,40.03-195.17,60.33-298.79,60.33Z"/>
    </g>
  </g>
</svg>