<?xml version="1.0" encoding="UTF-8"?>
<svg xmlns="http://www.w3.org/2000/svg" xmlns:xlink="http://www.w3.org/1999/xlink" viewBox="0 0 5400 7228.89">
  <defs>
    <style>
      .cls-1 {
        fill: none;
      }

      .cls-2 {
        fill: url(#linear-gradient);
      }

      .cls-3 {
        isolation: isolate;
      }

      .cls-4 {
        fill: #fffefc;
      }

      .cls-5 {
        opacity: .65;
      }

      .cls-6 {
        mix-blend-mode: soft-light;
      }

      .cls-7 {
        clip-path: url(#clippath);
      }

      .cls-8 {
        fill: #fcb500;
        filter: url(#drop-shadow-1);
      }
    </style>
    <linearGradient id="linear-gradient" x1="4673.36" y1="6292.9" x2="837.85" y2="4229.92" gradientUnits="userSpaceOnUse">
      <stop offset="0" stop-color="#fcb500"/>
      <stop offset="1" stop-color="#e96600"/>
    </linearGradient>
    <clipPath id="clippath">
      <rect class="cls-1" x="482.52" y="3984.88" width="4377.55" height="2462.37"/>
    </clipPath>
    <filter id="drop-shadow-1" x="0" y="0" width="5400" height="5081" filterUnits="userSpaceOnUse">
      <feOffset dx="0" dy="0"/>
      <feGaussianBlur result="blur" stdDeviation="30"/>
      <feFlood flood-color="#000" flood-opacity=".7"/>
      <feComposite in2="blur" operator="in"/>
      <feComposite in="SourceGraphic"/>
    </filter>
  </defs>
  <g class="cls-3">
    <g id="Layer_2" data-name="Layer 2">
      <g id="Layer_1-2" data-name="Layer 1">
        <g>
          <rect class="cls-2" x="482.52" y="3984.88" width="4377.55" height="2462.37"/>
          <g class="cls-7">
            <g>
              <g class="cls-6">
                <path class="cls-4" d="M4769.89,3873.76c36.76,319.78-8.6,649.08-129.02,947.8-57.22,140.38-129.03,277.72-232.37,389.91-80.06,88.22-180.69,154.84-285.49,209.93-275.22,143.09-577.51,242.3-888.79,257.5-12.05,1.06-32.07,1.28-44.38,1.72-32.22,1.49-78.97,1.29-111.03.98-110.04-1.64-222.82-11.35-332.04-24.65-231.17-28.45-470.43-78.43-700.57-114.59-29.17-4.44-58.41-8.43-87.73-11.69-123.64-14.28-251.61-14.24-371.3,23.45-48.87,14.83-97.01,35.62-142.5,58.74-78.64,40.66-152.32,89.95-223.95,141.99-142.43,105.38-286.55,209.67-418.49,328.14-87.7,79.16-169.61,165.23-238.6,261.36,0,0-.85-.6-.85-.6,170.76-244.24,417.1-419.42,652.6-596.25,113.26-82.92,233.39-161.9,368.61-203.73,13.62-4.11,29.68-8.93,43.08-11.87,7.68-1.75,14.49-3.73,21.76-5.11,36.03-7.48,73.98-12.36,110.68-14.49,66.77-3.91,133.83-.19,200.21,7.37,88.33,10.07,175.69,26.52,263.18,41.87,722.07,133.78,1216.56,217.05,1897.4-145.27,103.74-55.62,202.96-122.58,281.82-210.65,101.9-111.95,173.17-248.22,230.6-387.38,122.6-300.73,165.38-623.25,137.17-944.49h0Z"/>
                <path class="cls-4" d="M4790.98,3920.12c36.76,319.78-8.6,649.08-129.02,947.8-57.22,140.38-129.03,277.72-232.37,389.91-80.06,88.22-180.69,154.84-285.49,209.93-275.22,143.09-577.51,242.3-888.79,257.5-12.05,1.06-32.07,1.28-44.38,1.73-32.22,1.49-78.97,1.29-111.03.98-110.04-1.64-222.82-11.35-332.04-24.65-231.17-28.45-470.43-78.43-700.57-114.59-29.17-4.44-58.41-8.43-87.73-11.69-123.64-14.28-251.61-14.24-371.3,23.45-48.87,14.83-97.01,35.62-142.5,58.74-78.65,40.66-152.32,89.95-223.95,141.99-142.43,105.38-286.55,209.67-418.49,328.14-87.7,79.16-169.61,165.23-238.6,261.36,0,0-.85-.6-.85-.6,170.76-244.24,417.1-419.42,652.6-596.25,113.26-82.92,233.39-161.9,368.61-203.73,13.62-4.11,29.68-8.93,43.08-11.87,7.68-1.76,14.49-3.73,21.76-5.11,36.03-7.48,73.98-12.36,110.68-14.49,66.77-3.91,133.83-.19,200.21,7.37,88.33,10.06,175.69,26.52,263.18,41.87,722.07,133.79,1216.57,217.05,1897.4-145.27,103.74-55.62,202.96-122.58,281.82-210.65,101.9-111.95,173.17-248.22,230.6-387.38,122.6-300.73,165.38-623.25,137.17-944.5h0Z"/>
                <path class="cls-4" d="M4812.06,3966.47c36.76,319.78-8.6,649.08-129.02,947.8-57.22,140.38-129.03,277.72-232.37,389.91-80.06,88.22-180.69,154.84-285.49,209.93-275.22,143.09-577.51,242.3-888.79,257.5-12.05,1.06-32.07,1.28-44.38,1.73-32.22,1.49-78.97,1.29-111.03.98-110.04-1.64-222.82-11.35-332.04-24.65-231.17-28.45-470.43-78.43-700.57-114.59-29.17-4.44-58.41-8.43-87.73-11.69-123.64-14.28-251.61-14.25-371.3,23.45-48.87,14.83-97.01,35.62-142.5,58.74-78.65,40.66-152.32,89.95-223.95,141.99-142.43,105.38-286.55,209.67-418.49,328.14-87.7,79.16-169.61,165.23-238.6,261.36,0,0-.85-.6-.85-.6,170.76-244.24,417.1-419.42,652.6-596.25,113.26-82.92,233.39-161.9,368.61-203.73,13.62-4.11,29.68-8.93,43.08-11.87,7.68-1.75,14.49-3.73,21.76-5.11,36.03-7.48,73.98-12.36,110.68-14.49,66.77-3.9,133.83-.19,200.21,7.37,88.33,10.06,175.69,26.52,263.18,41.87,722.06,133.78,1216.57,217.05,1897.4-145.27,103.74-55.62,202.96-122.58,281.82-210.65,101.9-111.95,173.17-248.22,230.6-387.38,122.6-300.73,165.38-623.25,137.17-944.5h0Z"/>
                <path class="cls-4" d="M4833.14,4012.82c36.76,319.78-8.6,649.08-129.01,947.8-57.22,140.38-129.03,277.72-232.37,389.91-80.06,88.22-180.69,154.84-285.49,209.93-275.22,143.09-577.51,242.3-888.79,257.5-12.05,1.06-32.07,1.28-44.38,1.73-32.22,1.49-78.97,1.29-111.03.98-110.04-1.64-222.82-11.35-332.04-24.65-231.17-28.45-470.43-78.43-700.57-114.59-29.17-4.44-58.41-8.43-87.73-11.69-123.64-14.28-251.61-14.24-371.3,23.45-48.87,14.83-97.01,35.62-142.5,58.74-78.65,40.66-152.32,89.95-223.95,141.99-142.43,105.38-286.55,209.67-418.49,328.14-87.7,79.16-169.61,165.23-238.6,261.37,0,0-.85-.6-.85-.6,170.76-244.24,417.1-419.42,652.6-596.25,113.26-82.92,233.39-161.9,368.61-203.73,13.62-4.11,29.68-8.93,43.08-11.87,7.68-1.75,14.49-3.73,21.76-5.11,36.03-7.48,73.98-12.36,110.68-14.49,66.77-3.9,133.83-.19,200.21,7.37,88.33,10.07,175.69,26.52,263.18,41.87,722.06,133.79,1216.57,217.05,1897.4-145.27,103.74-55.62,202.96-122.58,281.82-210.65,101.9-111.95,173.17-248.22,230.6-387.38,122.6-300.73,165.38-623.25,137.17-944.49h0Z"/>
                <path class="cls-4" d="M4854.23,4059.17c36.76,319.78-8.6,649.08-129.01,947.8-57.22,140.38-129.03,277.72-232.37,389.91-80.06,88.22-180.69,154.84-285.49,209.93-275.22,143.09-577.51,242.3-888.79,257.5-12.05,1.06-32.07,1.28-44.38,1.72-32.22,1.49-78.97,1.29-111.03.98-110.04-1.64-222.82-11.35-332.04-24.65-231.17-28.45-470.43-78.43-700.57-114.59-29.17-4.44-58.41-8.43-87.73-11.69-123.64-14.28-251.61-14.24-371.3,23.45-48.87,14.83-97.01,35.62-142.5,58.74-78.65,40.66-152.32,89.95-223.95,141.99-142.43,105.38-286.55,209.67-418.49,328.14-87.7,79.16-169.61,165.23-238.6,261.37,0,0-.85-.6-.85-.6,170.76-244.24,417.1-419.42,652.6-596.25,113.26-82.92,233.39-161.9,368.61-203.73,13.62-4.11,29.68-8.93,43.08-11.87,7.68-1.75,14.49-3.73,21.76-5.11,36.03-7.48,73.98-12.36,110.68-14.49,66.77-3.91,133.83-.19,200.21,7.37,88.33,10.07,175.69,26.52,263.18,41.87,722.06,133.78,1216.57,217.05,1897.4-145.27,103.74-55.62,202.96-122.58,281.82-210.65,101.9-111.95,173.17-248.22,230.6-387.38,122.6-300.73,165.38-623.25,137.17-944.49h0Z"/>
                <path class="cls-4" d="M4875.31,4105.52c36.76,319.78-8.6,649.08-129.02,947.8-57.22,140.38-129.03,277.72-232.37,389.91-80.06,88.22-180.69,154.84-285.49,209.93-275.22,143.09-577.51,242.3-888.79,257.5-12.05,1.06-32.07,1.28-44.38,1.72-32.22,1.49-78.97,1.29-111.03.98-110.04-1.64-222.82-11.35-332.04-24.65-231.17-28.45-470.43-78.43-700.57-114.59-29.17-4.44-58.41-8.43-87.73-11.69-123.64-14.28-251.61-14.24-371.3,23.45-48.87,14.83-97.01,35.62-142.5,58.74-78.64,40.66-152.32,89.95-223.95,141.99-142.43,105.38-286.55,209.67-418.49,328.14-87.7,79.16-169.61,165.23-238.61,261.36,0,0-.85-.6-.85-.6,170.76-244.24,417.1-419.42,652.6-596.25,113.26-82.92,233.39-161.9,368.61-203.73,13.62-4.11,29.68-8.93,43.08-11.87,7.68-1.75,14.49-3.73,21.76-5.11,36.03-7.48,73.98-12.36,110.68-14.49,66.77-3.91,133.83-.19,200.21,7.37,88.33,10.07,175.69,26.52,263.18,41.87,722.06,133.78,1216.57,217.05,1897.4-145.27,103.74-55.62,202.96-122.58,281.82-210.65,101.9-111.95,173.17-248.22,230.6-387.38,122.6-300.73,165.38-623.25,137.17-944.5h0Z"/>
                <path class="cls-4" d="M4896.4,4151.88c36.76,319.78-8.6,649.08-129.02,947.8-57.22,140.38-129.03,277.72-232.37,389.91-80.06,88.22-180.69,154.84-285.49,209.93-275.22,143.09-577.51,242.3-888.79,257.5-12.05,1.06-32.07,1.28-44.38,1.73-32.22,1.49-78.97,1.29-111.03.98-110.04-1.64-222.82-11.34-332.04-24.65-231.17-28.45-470.43-78.43-700.57-114.59-29.17-4.44-58.41-8.43-87.73-11.69-123.64-14.28-251.61-14.25-371.3,23.45-48.87,14.83-97.01,35.62-142.5,58.74-78.64,40.66-152.32,89.95-223.95,141.99-142.43,105.38-286.55,209.67-418.49,328.14-87.7,79.16-169.61,165.23-238.6,261.36,0,0-.85-.6-.85-.6,170.76-244.24,417.1-419.42,652.6-596.25,113.26-82.92,233.39-161.9,368.61-203.73,13.62-4.11,29.68-8.93,43.08-11.87,7.68-1.75,14.49-3.73,21.76-5.11,36.03-7.48,73.98-12.36,110.68-14.49,66.77-3.9,133.83-.19,200.21,7.37,88.33,10.07,175.69,26.52,263.18,41.87,722.06,133.79,1216.57,217.05,1897.4-145.27,103.74-55.62,202.96-122.58,281.82-210.65,101.9-111.95,173.17-248.22,230.6-387.38,122.6-300.73,165.38-623.25,137.17-944.5h0Z"/>
                <path class="cls-4" d="M4917.48,4198.23c36.76,319.78-8.6,649.08-129.02,947.8-57.22,140.38-129.03,277.72-232.37,389.91-80.06,88.22-180.69,154.84-285.49,209.93-275.22,143.09-577.51,242.3-888.79,257.5-12.05,1.06-32.07,1.28-44.38,1.73-32.22,1.49-78.97,1.29-111.03.98-110.04-1.64-222.82-11.35-332.04-24.65-231.17-28.45-470.43-78.43-700.57-114.59-29.17-4.44-58.41-8.43-87.73-11.69-123.64-14.28-251.61-14.24-371.3,23.45-48.87,14.83-97.01,35.62-142.5,58.74-78.64,40.66-152.32,89.95-223.95,141.99-142.43,105.38-286.55,209.67-418.49,328.14-87.7,79.16-169.61,165.23-238.6,261.36,0,0-.85-.6-.85-.6,170.76-244.24,417.1-419.42,652.6-596.25,113.26-82.92,233.39-161.9,368.61-203.73,13.62-4.11,29.68-8.93,43.08-11.87,7.68-1.75,14.49-3.73,21.76-5.11,36.03-7.48,73.98-12.36,110.68-14.49,66.77-3.9,133.83-.19,200.21,7.37,88.33,10.07,175.69,26.52,263.18,41.87,722.07,133.78,1216.57,217.05,1897.4-145.27,103.74-55.62,202.96-122.58,281.82-210.65,101.9-111.95,173.17-248.22,230.6-387.38,122.6-300.73,165.38-623.25,137.17-944.5h0Z"/>
                <path class="cls-4" d="M4938.56,4244.58c36.76,319.78-8.6,649.08-129.02,947.8-57.22,140.38-129.03,277.72-232.37,389.91-80.06,88.22-180.69,154.84-285.49,209.93-275.22,143.09-577.51,242.3-888.79,257.5-12.05,1.06-32.07,1.28-44.38,1.73-32.22,1.49-78.97,1.29-111.03.98-110.04-1.64-222.82-11.35-332.04-24.65-231.17-28.45-470.43-78.43-700.57-114.59-29.17-4.44-58.41-8.43-87.73-11.69-123.64-14.28-251.61-14.24-371.3,23.45-48.87,14.83-97.01,35.62-142.5,58.74-78.64,40.66-152.32,89.95-223.95,141.99-142.43,105.38-286.55,209.67-418.49,328.14-87.7,79.16-169.61,165.23-238.6,261.37,0,0-.85-.6-.85-.6,170.76-244.24,417.1-419.42,652.6-596.25,113.26-82.92,233.39-161.9,368.61-203.73,13.62-4.11,29.68-8.93,43.08-11.87,7.68-1.75,14.49-3.73,21.76-5.11,36.03-7.48,73.98-12.36,110.68-14.49,66.77-3.9,133.83-.19,200.21,7.37,88.33,10.07,175.69,26.52,263.18,41.87,722.06,133.78,1216.57,217.05,1897.4-145.27,103.74-55.62,202.96-122.58,281.82-210.65,101.9-111.95,173.17-248.22,230.6-387.38,122.6-300.73,165.38-623.25,137.17-944.49h0Z"/>
                <path class="cls-4" d="M4959.65,4290.93c36.76,319.78-8.6,649.08-129.02,947.8-57.22,140.38-129.03,277.72-232.37,389.91-80.06,88.22-180.69,154.84-285.49,209.93-275.22,143.09-577.51,242.3-888.79,257.5-12.05,1.06-32.07,1.28-44.38,1.72-32.22,1.49-78.97,1.29-111.03.98-110.04-1.64-222.82-11.35-332.04-24.65-231.17-28.45-470.43-78.43-700.57-114.59-29.17-4.44-58.41-8.43-87.73-11.69-123.64-14.28-251.61-14.24-371.3,23.45-48.87,14.83-97.01,35.62-142.5,58.74-78.65,40.66-152.32,89.95-223.95,141.99-142.43,105.38-286.55,209.67-418.49,328.14-87.7,79.16-169.61,165.23-238.6,261.36,0,0-.85-.6-.85-.6,170.76-244.24,417.1-419.42,652.6-596.25,113.26-82.92,233.39-161.9,368.61-203.73,13.62-4.11,29.68-8.93,43.08-11.87,7.68-1.75,14.49-3.73,21.76-5.11,36.03-7.48,73.98-12.36,110.68-14.49,66.77-3.91,133.83-.19,200.21,7.37,88.33,10.06,175.69,26.52,263.18,41.87,722.07,133.78,1216.57,217.05,1897.4-145.27,103.74-55.62,202.96-122.58,281.82-210.65,101.9-111.95,173.17-248.22,230.6-387.38,122.6-300.73,165.38-623.25,137.17-944.49h0Z"/>
              </g>
              <g class="cls-6">
                <path class="cls-4" d="M4979.53,4341.11c36.76,319.78-8.6,649.08-129.01,947.8-57.22,140.38-129.03,277.72-232.37,389.91-80.06,88.22-180.69,154.84-285.49,209.93-275.22,143.09-577.51,242.3-888.79,257.5-12.05,1.06-32.07,1.28-44.38,1.73-32.22,1.49-78.97,1.29-111.03.98-110.04-1.64-222.82-11.35-332.04-24.65-231.17-28.45-470.43-78.43-700.57-114.59-29.17-4.44-58.41-8.43-87.73-11.69-123.64-14.28-251.61-14.24-371.3,23.45-48.87,14.83-97.01,35.62-142.5,58.74-78.65,40.66-152.32,89.95-223.95,141.99-142.43,105.38-286.55,209.67-418.49,328.14-87.7,79.16-169.61,165.23-238.61,261.36,0,0-.85-.6-.85-.6,170.76-244.24,417.1-419.42,652.6-596.25,113.26-82.92,233.39-161.9,368.61-203.73,13.62-4.11,29.68-8.93,43.08-11.87,7.68-1.75,14.49-3.73,21.76-5.11,36.03-7.48,73.98-12.36,110.68-14.49,66.77-3.9,133.83-.19,200.21,7.37,88.33,10.07,175.69,26.52,263.18,41.87,722.06,133.78,1216.57,217.05,1897.4-145.27,103.74-55.62,202.96-122.58,281.82-210.65,101.9-111.95,173.17-248.22,230.6-387.38,122.6-300.73,165.38-623.25,137.17-944.5h0Z"/>
                <path class="cls-4" d="M5000.61,4387.46c36.76,319.78-8.6,649.08-129.02,947.8-57.22,140.38-129.03,277.72-232.37,389.91-80.06,88.22-180.69,154.84-285.49,209.93-275.22,143.09-577.51,242.3-888.79,257.5-12.05,1.06-32.07,1.28-44.38,1.73-32.22,1.49-78.97,1.29-111.03.98-110.04-1.64-222.82-11.35-332.04-24.65-231.17-28.45-470.43-78.43-700.57-114.59-29.17-4.44-58.41-8.43-87.73-11.69-123.64-14.28-251.61-14.24-371.3,23.45-48.87,14.83-97.01,35.62-142.5,58.74-78.64,40.66-152.32,89.95-223.95,141.99-142.43,105.38-286.55,209.67-418.49,328.14-87.7,79.16-169.61,165.23-238.61,261.37,0,0-.85-.6-.85-.6,170.76-244.24,417.1-419.42,652.6-596.25,113.26-82.92,233.39-161.9,368.61-203.73,13.62-4.11,29.68-8.93,43.08-11.87,7.68-1.75,14.49-3.73,21.76-5.11,36.03-7.48,73.98-12.36,110.68-14.49,66.77-3.9,133.83-.19,200.21,7.37,88.33,10.07,175.69,26.52,263.18,41.87,722.06,133.78,1216.57,217.05,1897.4-145.27,103.74-55.62,202.96-122.58,281.82-210.65,101.9-111.95,173.17-248.22,230.6-387.38,122.6-300.73,165.38-623.25,137.17-944.49h0Z"/>
                <path class="cls-4" d="M5021.7,4433.82c36.76,319.78-8.6,649.08-129.02,947.8-57.22,140.38-129.03,277.72-232.37,389.91-80.06,88.22-180.69,154.84-285.49,209.93-275.22,143.09-577.51,242.3-888.79,257.5-12.05,1.06-32.07,1.28-44.38,1.72-32.22,1.49-78.97,1.29-111.03.98-110.04-1.64-222.82-11.35-332.04-24.65-231.17-28.45-470.43-78.43-700.57-114.59-29.17-4.44-58.41-8.43-87.73-11.69-123.64-14.28-251.61-14.24-371.3,23.45-48.87,14.83-97.01,35.62-142.5,58.74-78.65,40.66-152.32,89.95-223.95,141.99-142.43,105.38-286.55,209.67-418.49,328.14-87.7,79.16-169.61,165.23-238.6,261.36,0,0-.85-.6-.85-.6,170.76-244.24,417.1-419.42,652.6-596.25,113.26-82.92,233.39-161.9,368.61-203.73,13.62-4.11,29.68-8.93,43.08-11.87,7.68-1.75,14.49-3.73,21.76-5.11,36.03-7.48,73.98-12.36,110.68-14.49,66.77-3.91,133.83-.19,200.21,7.37,88.33,10.06,175.69,26.52,263.18,41.87,722.07,133.78,1216.56,217.05,1897.4-145.27,103.74-55.62,202.96-122.58,281.82-210.65,101.9-111.95,173.17-248.22,230.6-387.38,122.6-300.73,165.38-623.25,137.17-944.49h0Z"/>
                <path class="cls-4" d="M5042.78,4480.17c36.76,319.78-8.6,649.08-129.02,947.8-57.22,140.38-129.03,277.72-232.37,389.91-80.06,88.22-180.69,154.84-285.49,209.93-275.22,143.09-577.51,242.3-888.79,257.5-12.05,1.06-32.07,1.28-44.38,1.73-32.22,1.49-78.97,1.29-111.03.98-110.04-1.64-222.82-11.35-332.04-24.65-231.17-28.45-470.43-78.43-700.57-114.59-29.17-4.44-58.41-8.43-87.73-11.69-123.64-14.28-251.61-14.24-371.3,23.45-48.87,14.83-97.01,35.62-142.5,58.74-78.64,40.66-152.32,89.95-223.95,141.99-142.43,105.38-286.55,209.67-418.49,328.14-87.7,79.16-169.61,165.23-238.6,261.36,0,0-.85-.6-.85-.6,170.76-244.24,417.1-419.42,652.6-596.25,113.26-82.92,233.39-161.9,368.61-203.73,13.62-4.11,29.68-8.93,43.08-11.87,7.68-1.76,14.49-3.73,21.76-5.11,36.03-7.48,73.98-12.36,110.68-14.49,66.77-3.91,133.83-.19,200.21,7.37,88.33,10.07,175.69,26.52,263.18,41.87,722.07,133.78,1216.56,217.05,1897.4-145.27,103.74-55.62,202.96-122.58,281.82-210.65,101.9-111.95,173.17-248.22,230.6-387.38,122.6-300.73,165.38-623.25,137.17-944.5h0Z"/>
                <path class="cls-4" d="M5063.86,4526.52c36.76,319.78-8.6,649.08-129.02,947.8-57.22,140.38-129.03,277.72-232.37,389.91-80.06,88.22-180.69,154.84-285.49,209.93-275.22,143.09-577.51,242.3-888.79,257.5-12.05,1.06-32.07,1.28-44.38,1.73-32.22,1.49-78.97,1.29-111.03.98-110.04-1.64-222.82-11.35-332.04-24.65-231.17-28.45-470.43-78.43-700.57-114.59-29.17-4.44-58.41-8.43-87.73-11.69-123.64-14.28-251.61-14.25-371.3,23.45-48.87,14.83-97.01,35.62-142.5,58.74-78.64,40.66-152.32,89.95-223.95,141.99-142.43,105.38-286.55,209.67-418.49,328.14-87.7,79.16-169.61,165.23-238.6,261.36,0,0-.85-.6-.85-.6,170.76-244.24,417.1-419.42,652.6-596.25,113.26-82.92,233.39-161.9,368.61-203.73,13.62-4.11,29.68-8.93,43.08-11.87,7.68-1.75,14.49-3.73,21.76-5.11,36.03-7.48,73.98-12.36,110.68-14.49,66.77-3.9,133.83-.19,200.21,7.37,88.33,10.07,175.69,26.52,263.18,41.87,722.06,133.78,1216.57,217.05,1897.4-145.27,103.74-55.62,202.96-122.58,281.82-210.65,101.9-111.95,173.17-248.22,230.6-387.38,122.6-300.73,165.38-623.25,137.17-944.5h0Z"/>
                <path class="cls-4" d="M5084.95,4572.87c36.76,319.78-8.6,649.08-129.02,947.8-57.22,140.38-129.03,277.72-232.37,389.91-80.06,88.22-180.69,154.84-285.49,209.93-275.22,143.09-577.51,242.3-888.79,257.5-12.05,1.06-32.07,1.28-44.38,1.73-32.22,1.49-78.97,1.29-111.03.98-110.04-1.64-222.82-11.35-332.04-24.65-231.17-28.45-470.43-78.43-700.57-114.59-29.17-4.44-58.41-8.43-87.73-11.69-123.64-14.28-251.61-14.24-371.3,23.45-48.87,14.83-97.01,35.62-142.5,58.74-78.65,40.66-152.32,89.95-223.95,141.99-142.43,105.38-286.55,209.67-418.49,328.14-87.7,79.16-169.61,165.23-238.6,261.37,0,0-.85-.6-.85-.6,170.76-244.24,417.1-419.42,652.6-596.25,113.26-82.92,233.39-161.9,368.61-203.73,13.62-4.11,29.68-8.93,43.08-11.87,7.68-1.75,14.49-3.73,21.76-5.11,36.03-7.48,73.98-12.36,110.68-14.49,66.77-3.9,133.83-.19,200.21,7.37,88.33,10.07,175.69,26.52,263.18,41.87,722.07,133.79,1216.57,217.05,1897.4-145.27,103.74-55.62,202.96-122.58,281.82-210.65,101.9-111.95,173.17-248.22,230.6-387.38,122.6-300.73,165.38-623.25,137.17-944.49h0Z"/>
                <path class="cls-4" d="M5106.03,4619.22c36.76,319.79-8.6,649.08-129.02,947.8-57.22,140.38-129.03,277.72-232.37,389.91-80.06,88.22-180.69,154.84-285.49,209.93-275.22,143.09-577.51,242.3-888.79,257.5-12.05,1.06-32.07,1.28-44.38,1.72-32.22,1.49-78.97,1.29-111.03.98-110.04-1.64-222.82-11.35-332.04-24.65-231.17-28.45-470.43-78.43-700.57-114.59-29.17-4.44-58.41-8.43-87.73-11.69-123.64-14.28-251.61-14.24-371.3,23.45-48.87,14.83-97.01,35.62-142.5,58.74-78.65,40.66-152.32,89.95-223.95,141.99-142.43,105.38-286.55,209.67-418.49,328.14-87.7,79.16-169.61,165.23-238.6,261.37,0,0-.85-.6-.85-.6,170.76-244.24,417.1-419.42,652.6-596.25,113.26-82.92,233.39-161.9,368.61-203.73,13.62-4.11,29.68-8.93,43.08-11.87,7.68-1.75,14.49-3.73,21.76-5.11,36.03-7.48,73.98-12.36,110.68-14.49,66.77-3.91,133.83-.19,200.21,7.37,88.33,10.07,175.69,26.52,263.18,41.87,722.07,133.78,1216.57,217.05,1897.4-145.27,103.74-55.62,202.96-122.58,281.82-210.65,101.9-111.95,173.17-248.22,230.6-387.38,122.6-300.73,165.38-623.25,137.17-944.5h0Z"/>
                <path class="cls-4" d="M5127.11,4665.58c36.76,319.78-8.6,649.08-129.01,947.8-57.22,140.38-129.03,277.72-232.37,389.91-80.06,88.22-180.69,154.84-285.49,209.93-275.22,143.09-577.51,242.3-888.79,257.5-12.05,1.06-32.07,1.28-44.38,1.72-32.22,1.49-78.97,1.29-111.03.98-110.04-1.64-222.82-11.35-332.04-24.65-231.17-28.45-470.43-78.43-700.57-114.59-29.17-4.44-58.41-8.43-87.73-11.69-123.64-14.28-251.61-14.24-371.3,23.45-48.87,14.83-97.01,35.62-142.5,58.74-78.65,40.66-152.32,89.95-223.95,141.99-142.43,105.38-286.55,209.67-418.49,328.14-87.7,79.16-169.61,165.23-238.61,261.36,0,0-.85-.6-.85-.6,170.76-244.24,417.1-419.42,652.6-596.25,113.26-82.92,233.39-161.9,368.61-203.73,13.62-4.11,29.68-8.93,43.08-11.87,7.68-1.75,14.49-3.73,21.76-5.11,36.03-7.48,73.98-12.36,110.68-14.49,66.77-3.91,133.83-.19,200.21,7.37,88.33,10.06,175.69,26.52,263.18,41.87,722.07,133.78,1216.56,217.05,1897.4-145.27,103.74-55.62,202.96-122.58,281.82-210.65,101.9-111.95,173.17-248.22,230.6-387.38,122.6-300.73,165.38-623.25,137.17-944.5h0Z"/>
                <path class="cls-4" d="M5148.2,4711.93c36.76,319.78-8.6,649.08-129.01,947.8-57.22,140.38-129.03,277.72-232.37,389.91-80.06,88.22-180.69,154.84-285.49,209.93-275.22,143.09-577.51,242.3-888.79,257.5-12.05,1.06-32.07,1.28-44.38,1.73-32.22,1.49-78.97,1.29-111.03.98-110.04-1.64-222.82-11.35-332.04-24.65-231.17-28.45-470.43-78.43-700.57-114.59-29.17-4.44-58.41-8.43-87.73-11.69-123.64-14.28-251.61-14.25-371.3,23.45-48.87,14.83-97.01,35.62-142.5,58.74-78.65,40.66-152.32,89.95-223.95,141.99-142.43,105.38-286.55,209.67-418.49,328.14-87.7,79.16-169.61,165.23-238.61,261.36,0,0-.85-.6-.85-.6,170.76-244.24,417.1-419.42,652.6-596.25,113.26-82.92,233.39-161.9,368.61-203.73,13.62-4.11,29.68-8.93,43.08-11.87,7.68-1.76,14.49-3.73,21.76-5.11,36.03-7.48,73.98-12.36,110.68-14.49,66.77-3.91,133.83-.19,200.21,7.37,88.33,10.07,175.69,26.52,263.18,41.87,722.06,133.79,1216.57,217.05,1897.4-145.27,103.74-55.62,202.96-122.58,281.82-210.65,101.9-111.95,173.17-248.22,230.6-387.38,122.6-300.73,165.38-623.25,137.17-944.5h0Z"/>
                <path class="cls-4" d="M5169.28,4758.28c36.76,319.78-8.6,649.08-129.02,947.8-57.22,140.38-129.03,277.72-232.37,389.91-80.06,88.22-180.69,154.84-285.49,209.93-275.22,143.09-577.51,242.3-888.79,257.5-12.05,1.06-32.07,1.28-44.38,1.73-32.22,1.49-78.97,1.29-111.03.98-110.04-1.64-222.82-11.35-332.04-24.65-231.17-28.45-470.43-78.43-700.57-114.59-29.17-4.44-58.41-8.43-87.73-11.69-123.64-14.28-251.61-14.25-371.3,23.45-48.87,14.83-97.01,35.62-142.5,58.74-78.65,40.66-152.32,89.95-223.95,141.99-142.43,105.38-286.55,209.67-418.49,328.14-87.7,79.16-169.61,165.23-238.61,261.36,0,0-.85-.6-.85-.6,170.76-244.24,417.1-419.42,652.6-596.25,113.26-82.92,233.39-161.9,368.61-203.73,13.62-4.11,29.68-8.93,43.08-11.87,7.68-1.75,14.49-3.73,21.76-5.11,36.03-7.48,73.98-12.36,110.68-14.49,66.77-3.9,133.83-.19,200.21,7.37,88.33,10.06,175.69,26.52,263.18,41.87,722.06,133.78,1216.57,217.05,1897.4-145.27,103.74-55.62,202.96-122.58,281.82-210.65,101.9-111.95,173.17-248.22,230.6-387.38,122.6-300.73,165.38-623.25,137.17-944.5h0Z"/>
              </g>
            </g>
            <path class="cls-8" d="M4866.09,90.86L280.6,263.43l78.38,2082.67c-16.62,6.73-6.01,37.04-10.82,53.56-4.86,16.72-19.41,23.32-22.88,35.15-.02-2.37-.88-4.28-3.01-5.53-1.65,17.33,4.93,32.56-.37,54.06,21.19,3.63.64,46.39-2.66,64.82,3.3,2.29,5.84-1.16,6.04,2.4-1.53,4.24-6.36,2.11-7.86,6.3,7.26-.55,5.72,2.86,9.16,8.38-3.3.74-12.73,15.45-7.22,13.57,1.16-3.91,2.86-6.72,5.86-7.06-1.65,23.57-15.48,21.91-13.6,44,.84-1.53.96-4.27,2.96-3.53,7.52,21.23,10.95,36.47,2.52,50.44-3.75,7-8.33,32.86-17.16,40.22,9.97.11,4.16,13.12,1.27,14.64,7.01,6.26,2.46-9.57,9.46-3.28-3.5,1.74-5.46,11.18-3.2,15.24-3.85-6.81-14.61,11.34-13.7,13.3,1.5-2.15,3.18-4.08,5.37-4.89-3.82,7.21,2.79,8.67,3.77,13.27-5.48,8.86-19.75,16.95-18.9,27.73,3.17-4.64,8.56,5.3,6.7,9.74-12.67,13.57.8,31.42-12.02,47.01,9.55-1.87,3.01,4.34,6.71,9.74.92-2.25,2.93-2.52,4.92-2.76-.89-1.67,2.22-13.13,5.22-14.39,1.05,26.1-25.27,52.12-26.29,83.67-2.28-.73-2.47-4.42-4.01-1.63,3.8,1.76-3.32,7.45-4.3,10.05,12.53,35.09-6.86,100.28-15.87,127.85.42,5.52,8.69,7.74.86,16.81,3.69,5.39,3.78,7.89,6.69,9.73-3.55,19.2-9.13,34.51-4.4,52.4-3.24,8.31-12.34,10.55-12.63,18.47,2.07-.51,9.29-5.96,8.97-1.13-4.64,8.86-.87,16-10.13,17.15,2.31,1.29,5.79,1.89,5.59,4.6-16.85,11.39,4.43,43.24-15.42,52.66-.18,6.74,3.83-2.04,6.49.27-16.34,25.18-15.08,43.66-25.53,69.81,5.16-6.95,8.7,13.5,5.33,16.25-.97.81-1.72,1.1-2.36,1.25.42.74.92,1.74,1.44,3.12.04.04-2.16,4.71-1.35,6.49-.21-.44,9.34,12.99,11.04,11.29.04-.69.04-1.36.15-2.09.21,1.18.12,1.81-.15,2.09-.5,8.54,3.35,14.73,3.66,22.86-11.38,11.38-18.85,28.48-25.24,36.97,9.18-6.66,1.7-1.32-.89,4.34-.58,1.22,1.11,7.13.17,9.49-9.29,23.58-18,44.19-19.68,62.77,6.46,7.63,10.07,5.6,11.82,16.49-3.09,12.52-21.29,26.79-10.19,38.28.87-5.54-2.44-8.34,3.85-7.88-4.44,7.56,5.68,7.08,1.27,14.66-1.06,4.01-3.43-2.75-4.47.57-10.32,31.8,1.39,48.51-4.97,66.56.75-1.64,1.88-2.55,4.32-.91,2.63,6.52-7.63,16-3.01,24.69,1.33-11.86,3.73-.93,6.04,2.44-8.08-3.97-.28,3.14-3.82,7.86-2.01,3.28-9.52-3.98-11,.3,6.22,2.59,6.66,12.42,10.94,20.89-7.35,13.56-16.7,33.47-20.74,48.3,2.41-5.21,4.4,8.5,8.25.85-4.23,8.28,1.67,23.11-11.53,23.6,9.99,5.7-3.25,15.55-2.52,22.56,4.36-2.07-4.13,8.23,2.67,8.12-8.36,4.75-1.36,17.3-2.98,24.71-8.68,24.81-18.94,54.87-13.47,74.65,3.01,10.92-4.74,13.73-4.74,12.22-.03,14.08,13.44,32.84-1.49,48.84,1.6,6.37,3.73,3,5.15,6.77.72,15.73-10.58,32.89-14.98,50.53-1.84,7.32,2.62,24.2-4.55,21.71,6.36,5.79,6.37,12.47,12.1,4.86,2.09,6.72-5.79,18.13.39,18.99-14.03,16.76-6.65,31.08-16.04,45.34,14.27,1.62.22,22.61-4.54,34.45,2.15-2.94,6.46-4.42,6.23-.82-3.17,13.36-24.31,21.05-22.13,42.96,3.59-4.97,2.1-5.03,2.72-13.04,4.33,11.8,11.01,4.29,12.75,12.16-12.63,1.26-4.81,13.67-6.56,20.92.8-1.5.93-4.26,2.93-3.55-3.9,8.56,3.89,10.68,2.85,17.63-2.46,2.67-14.31,2.76-10.32,7.64,1.33-5.25,6.76,2.22,5.59,4.58-5.14,4.6,1.87,14.17-4.13,19.55,3.72,1.79,6.44,4.11,7.15,7.58-3.08-.56-10.57,5.65-6.31,9.23,5.17-8.12,1.65,8.38,1.78,12.48-3.97-7.84-3.75,3.03-8.97,1.12-.92,7.56-2.11,15.21-.07,21.17.69-3.79,2.73-4.94,5.4-4.93-.66,5.06-11.68,5.69-6.74,11.44,3.41,1.63,7.24-3.8,12.35-6.83,6.91,13.07-8.49,31.91,2.98,48.29-2.07,7.22-7.27,8.4-8.12,17.93,3.34,2.62-4.98.68-3.95,4.6-10.35,1.56,18.92,37.78,6.04,48.04,3.05,3.41-2.3.47-4.41,6.76-1.41-2.35.39,4.03-.54,9.42l3.55.48c.92-.6,1.85-1.28,2.79-2.11,1.78,1.17,3.55,2.22,5.32,3.2l124.77,16.87c.55-.83,1.06-1.75,1.49-2.87,5.96,2.21,26.12,2.39,38.26-5.55,21.26,10.3,49.89,20.83,69.43,15.14,9.27,5.7,18.41,9.14,27.29,11.73l63.35,8.57c.04-.16.13-.28.16-.47-2.94-1.08-3.99-3.4-5.03-5.71,5.48,2.54,8.2,8.42,13.2,5.22,1.16-6.51-5.58-8.3-4.43-14.85,22.5,3.45,44.59-.34,68.62,7.65-3.2-2.59-4.49-8.03-1-6.75,26,13.73,35.31,4.43,69.45,15.16.55-2.61-.05-6.58,3.08-6.25,26.13,4.84,50.23,17.97,64.85,2.56-.15,2.3-.32,4.57-.47,6.87,7.51-5.39,11.09-2.47,16.31-1.09,5.61-10.86,33.91,7.38,58.77,12.87,3.98-4.41-6.3-10.09.58-9.12,9.58,4.86,11.8,5.84,18.41,8.63,4.21-6.65,14.86-6,19.74-11.87,7.38-.08,5.06,5.69,10.37,6.89-2.32-9.79,21.23-1.15,23.9,7.55.45-3.96-.14-7.24-2.11-9.73,27.93,7.05,45.75,9.05,74.38,23.16-3.29-.44-6.38-.68-5.65,3.39,12-3.9,55.09,7.58,53.42,11.69,12.68-4.22,44.42,12.1,45.99.81,31.13,13.04,88.87,22.44,102.38,8.45,15.27,13.86,47.03,9.4,57.69,28.82,25.07-8.34,58.72-8.56,84.58-9.3-.1,3.17-1.56,4.72-3.12,6.26,19.12-16.27,62.65-14.8,94.51,4.45-2.42-6.6-6.8-9.38.87-13.71,55.95,19.73,87.6,7.31,132.2,8.04,22.05,15.49,84.26,9.83,101.2,26.74,10.53-14.56,48.44-6.11,67.95-3.67-2.7-.6-3.1-4.73.25-4.57,22.11,12.58,40.85,2.35,56.53,5.4,35.39,15.42,77.77,23.8,110.23,12.5,13.23,16.36,44.55,8.43,48.7,1.39,17.7,7.85,19.14,2.08,31.6,13.85,1.55-9.4,15.21-7.8,14.4-13.05,14.82,12.46,17.13-1.44,21.05,9.22,5.3-2.93-3.19-7.88,5.93-7.94,5.44,6.26,18.71,19.32,23.12,18.93-24.85-14.91,16.53-13.83,19.15-2.77,3.48-14.06,24.69,3.24,29.22,8.69,5.89-12.8,43.04,9.91,51.81-4.86,12.26,7.61,27.89,3.25,37.51,5.86-5.66,4.11.5,2.68,2.23,7.43,4.64,1.2,8.32,1.32,10.85.08,11.99,27.21,46.42,13.19,69.11,19.71,21.08,6.04,34.3,22.86,49.23,27.17-2.72-.04-4.58.88-5.19,3.29,20.54,2.38,35.48-4.7,62.24,1.99-4.04-24.13,53.04.62,75.47,4.93,1.36-3.71-3.59-6.71.42-6.84,5.45,1.87,4.89,7.33,10.28,9.17-3.43-8.31,1.07-6.46,6.08-10.22,2.13,3.79,22.67,14.99,18.39,8.64-4.94-1.43-8.83-3.47-10.38-6.91,27.71,2.57,31.17,18.34,55.8,16.83-2.08-1-5.28-1.22-5.2-3.48,21.47-7.98,37.63-11.47,56.96-1.42,9.48,4.49,40.97,10.48,52.83,20.78-3.73-11.39,13.46-4.38,16.32-1.03,4.47-7.83-11.95-3.09-7.43-10.91,3.35,4.05,14.95,6.57,18.74,4.1-6.34,4.21,18.68,17.04,20.58,16.05-3.05-1.79-5.92-3.76-7.7-6.29,9.76,4.57,8.88-2.94,13.78-3.92,12.29,6.52,27.11,23.06,39.16,22.41-6.56-3.76,2.78-9.62,8.59-7.37,20.49,14.88,35.78,0,58.64,15.1-5.85-10.97,3.82-3.31,8.59-7.38-2.95-1.12-4.04-3.43-5.08-5.71-1.57.97-15.94-2.92-18.55-6.38,29.56-.45,69.65,30.4,106.28,32.48.04,2.58-4.12,2.7-.31,4.53.55-4.29,9.84,4.01,13.21,5.2,35.45-13.29,117.83,10.76,152.97,21.85,6.18-.33,5.52-9.71,18.97-.49,4.76-4.06,7.59-4.1,8.58-7.37,23.42,4.62,43.17,11.44,61.88,6.56,10.8,3.94,16.9,14.41,26.11,14.97-1.39-2.38-10.44-10.8-4.77-10.29,11.98,5.56,18.7,1.45,23.62,12.09.59-2.6-.06-6.56,3.12-6.26,19.6,19.59,47.94-3.81,66.45,19.15,7.81.4-3.83-4.44-2.21-7.41,35.25,19.41,55.99,18.51,90.06,31.22-9.98-6.11,12.14-9.56,16.61-5.63,1.31,1.14,1.93,2.01,2.35,2.74.68-.47,1.63-1.01,3.02-1.55.03-.04,6.24,2.61,7.98,1.73-.43.22,11.3-10.31,8.69-12.29-.81-.07-1.59-.1-2.45-.23,1.28-.21,2.03-.09,2.45.23,9.99.81,15.61-3.41,24.83-3.52,17.48,13.35,40.01,22.38,52.24,29.93-11.21-10.69-2.18-1.98,5.33,1.14,1.63.69,7.76-1.06,10.83.08,30.68,11.31,57.72,21.86,79.71,24.33,6.27-7.16,2.52-11.36,14.36-13.04,15.57,3.9,39.02,25.12,47.9,12.75-6.7-1.15-8.62,2.55-10.54-4.63,10.41,5.3,5.93-6.29,16.34-1.03,5.02,1.33-1.83,3.84,2.39,5.13,40.51,12.72,55.16-.18,78.36,7.61-2.17-.89-3.64-2.22-2.72-4.96,6.48-2.82,21.33,9.19,29.52,4.16-14.13-1.86-2.51-4.29.46-6.83-1.42,9.12,3.72.41,10.51,4.59,4.54,2.4-.88,10.77,4.61,12.59.57-7.03,11.69-7.25,19.75-11.91,18.42,8.79,44.91,20.06,63.5,25.11-6.91-2.9,8.07-4.78-2.22-9.4,11.14,5.07,25.9-1.24,31.57,13.86,2.68-11.26,19.12,4.17,26.88,3.54-4.07-5.04,11.04,4.96,8.29-2.82,8.7,9.69,20.41,2.06,29.53,4.13,31.85,10.65,70.34,23.24,90.95,17.56,11.38-3.12,17.61,5.81,15.88,5.77,16.18.44,32.51-14.41,56.67,3.12,6.7-1.64,2-4.18,5.78-5.69,17.79-.37,41.88,13.05,63.84,18.58,9.12,2.32,26.77-2.29,26.69,5.83,4.18-7.1,11.85-6.91.89-13.69,6.91-2.2,23.07,7.14,21.67.11,24.68,16.52,38.26,8.51,58.28,19.65-3.66-16.27,25.89.41,41.32,6.19-4.21-2.55-7.58-7.51-3.36-7.15,11.18,2.7,22.58,14.67,36.27,21.61l6.77.92c9.86-4.65-.18-11.99,7.88-13.69,6.33,14.47,17.56,5.89,26.56,8.1-2.03-.96-5.26-1.18-5.21-3.45,11.34,4.7,10.77-4.13,19.15-2.75,4.03,2.9,8.72,16.44,12.78,12.02-6.54-1.67-.07-7.66,3.1-6.25,7.27,6,15.55-1.73,24.05,5.28.61-4.2,2.23-7.25,5.93-7.96.56,3.51,10.59,12.25,13.04,7.48-11.33-6.14,8.99-1.64,13.64-1.67-7.47,4.31,4.94,4.38,4.76,10.29,9.04,1.27,18.29,2.85,24.35.69-4.63-.9-6.73-3.27-7.76-6.31,6.07.9,11.06,13.52,15.76,8.04.55-3.85-7.17-8.39-12.63-14.33,12.33-7.52,39.94,10.63,54.3-2,9.09,2.57,12.46,8.55,23.74,9.8,1.72-3.74,2.71,5.71,6.81,4.65,5.8,11.88,36.06-20.54,52.84-5.52,2.73-3.39,1.43,2.64,9.47,5.24-3.21,2.31,13.19-3.06,19.61,5.76,7.43,2.61-5.42,4.9,3.94,6.35,4.01,7.24,13.68-7.74,20.4-5.65-2.48-.95-3.12,7.67-3.88,9.19,14.84,1.05,43.47-7.57,31.75-21.6,16.86-4.97,53.38-10.33,59.2,5.97,9.26-2.75-5.95-9.16.56-9.11,9.18,1.29,5.15,6.01,12.77,12.02.54-9.16,14.33-3.28,24.48-1.6,3.79-6.64-8.51-3.63-4.73-10.26,3.53,4.28,12.51,10.03,18.51,6.34,1.15-4.32-3.31-5.28-4.87-7.99,18.32-1.81,40.61,6.72,49.5,13.02-6.55-7.68,6.22-11.28,12.08-1.9,2.59-16.56,23.64,7.78,29.71,1.86-9.75-10.02,21.42,3.35,26.94,1.27,1.7-2.99-2.34-12.48,3.43-10.85,13.96,5.17,15.19,10.44,37.25,10.45-3.11-1-7.64-1.24-7.89-4.01,19.93,3.43,4.21,6.94,23.9,7.51,4.22,6.82-4.62,7.95,4.74,10.32,4.62.04-.37-3.07.44-6.87,13.95,9.58,28.28,1.31,37.1,12.75,10.55-6.76,27.8,7.14,40.21,6.47,1.97-12.28,38.87,11.04,50.87,8.79.63-6.16-4.13-5.57.62-9.1,6.43,5.72,10.35,5.72,14.43,5.71.24-1.34.76-2.55,1.85-3.53,1.17-2.36-4.25-9.82-5.58-4.58-3.99-4.87,7.86-4.97,10.32-7.64,1.03-6.95-6.76-9.08-2.86-17.64-2-.71-2.13,2.05-2.93,3.55,1.76-7.25-6.07-19.67,6.56-20.93-1.74-7.87-8.42-.37-12.75-12.17-.63,8.02.86,8.07-2.72,13.04-2.18-21.91,18.96-29.6,22.13-42.96.22-3.6-4.08-2.12-6.24.83,4.76-11.84,18.81-32.83,4.54-34.45,9.38-14.26,2.01-28.58,16.04-45.34-6.18-.86,1.7-12.26-.39-19-5.74,7.61-5.74.94-12.1-4.85,7.17,2.49,2.71-14.38,4.55-21.7,4.4-17.64,15.7-34.79,14.98-50.53-1.42-3.77-3.55-.39-5.15-6.77,14.93-16,1.46-34.76,1.49-48.84,0,1.51,7.74-1.3,4.74-12.22-5.47-19.78,4.78-49.85,13.47-74.65,1.62-7.4-5.38-19.95,2.98-24.71-6.8.1,1.69-10.2-2.67-8.13-.73-7,12.51-16.85,2.52-22.55,13.2-.48,7.31-15.32,11.53-23.6-3.85,7.66-5.84-6.07-8.25-.84,4.04-14.83,13.39-34.74,20.74-48.31-4.3-8.46-4.73-18.29-10.95-20.88,1.48-4.29,8.99,2.97,11-.31,3.54-4.71-4.26-11.83,3.82-7.86-2.3-3.37-4.71-14.3-6.04-2.44-4.63-8.69,5.64-18.16,3.01-24.69-2.44-1.63-3.57-.73-4.32.91,6.36-18.05-5.35-34.76,4.97-66.55,1.04-3.31,3.41,3.44,4.47-.57,4.41-7.57-5.71-7.09-1.27-14.65-6.28-.45-2.98,2.34-3.85,7.88-11.1-11.49,7.09-25.76,10.19-38.28-1.75-10.9-5.37-8.86-11.83-16.5,1.69-18.57,10.4-39.18,19.69-62.76.93-2.37-.75-8.27-.18-9.49,2.59-5.67,10.07-11.01.89-4.34,6.39-8.49,13.85-25.6,25.24-36.97-.31-8.13-4.15-14.32-3.66-22.86-1.69,1.7-11.24-11.73-11.04-11.29-.81-1.79,1.39-6.45,1.35-6.5-.51-1.37-1.01-2.37-1.44-3.11.63-.15,1.39-.44,2.36-1.25,3.36-2.75-.18-23.2-5.34-16.26,10.45-26.14,9.19-44.62,25.53-69.81-2.65-2.31-6.67,6.47-6.49-.26,19.85-9.42-1.44-41.28,15.42-52.66.19-2.71-3.29-3.31-5.6-4.6,9.27-1.15,5.5-8.28,10.13-17.15.32-4.83-6.9.61-8.97,1.13.29-7.91,9.39-10.17,12.63-18.47-4.73-17.89.85-33.2,4.4-52.4-2.9-1.84-3-4.34-6.69-9.73,7.84-9.06-.43-11.28-.85-16.81,9-27.56,28.39-92.76,15.87-127.84.98-2.6,8.09-8.29,4.3-10.06,1.54-2.79,1.72.91,4.01,1.62,1.02-31.55,27.34-57.58,26.29-83.66-2.99,1.25-6.1,12.71-5.22,14.39-1.99.24-4,.49-4.92,2.75-3.7-5.4,2.84-11.6-6.71-9.74,12.82-15.57-.65-33.43,12.02-46.99,1.86-4.43-3.52-14.38-6.7-9.73-.84-10.8,13.43-18.88,18.9-27.73-.98-4.61-7.58-6.07-3.77-13.28-2.19.82-3.87,2.73-5.38,4.9-.91-1.98,9.85-20.13,13.71-13.31-2.26-4.06-.3-13.49,3.2-15.23-7-6.27-2.45,9.55-9.46,3.27,2.89-1.52,8.69-14.53-1.27-14.62,8.82-7.36,13.4-33.24,17.15-40.23,8.44-13.98,5-29.2-2.52-50.43-1.99-.75-2.12,2-2.96,3.51-1.88-22.06,11.95-20.42,13.6-43.98-3,.34-4.71,3.14-5.87,7.07-5.5,1.87,3.93-12.85,7.22-13.58-3.43-5.53-1.9-8.94-9.16-8.38,1.5-4.2,6.34-2.07,7.86-6.29-.2-3.56-2.74-.13-6.04-2.41,3.3-18.42,23.87-61.18,2.67-64.81,5.31-21.51-1.27-36.73.37-54.06,2.13,1.25,2.99,3.16,3.02,5.53,3.47-11.82,18.02-18.45,22.87-35.16,5.24-17.98-7.9-52.4,15.85-54.83-1.15-2.59-1.13-5.79-.17-9.51,4.15-.1,2.76-5.94,6.5.25,2.09-7.67-2.1-22.7,4.33-31.21-13.22-12.09,5.98-37.96-5.44-46.94,4.71-2.37,19.5-15.84,7.02-23.08,9.7.98,9.73-35.03-2.87-17.65-.44-3.98,10.78-11.75,16.19-14.67-.25-8.03-4.44-2.04-7.13-7.57,9.32-.27-3.01-6.44,7.66-15.74-4.62-.84-3.51-12.37-11.84-16.53,10.1-7.44,4.98-10.43,11.52-23.64-6.3-5.73-14.01-35.6.14-42.34-10.69-31.88-4.25-66.61,8.58-93.1,2.34-12.87-7.1-32.37,3.51-48.04.07-2.9-3.58-3.78-4.04-1.58,1.72-16.4,8.32-47.18-4.75-60.76,14.55-9.85,8.17-66.16,21.34-80.92-.31-35.12-9.76-64.21.23-101.32-11.16,15.2-25.8,34.21-16.98,45.41-5.62,3.93,3.19,1.47,4.11,11.38,2.87-2.94-1.95,5.76-2.43,13.94l-5.35-.51c-1.15-1.2-2.27-2.51-3.35-4.03-3,1.1-5.95,2.03-8.87,2.85l-187.98-18.13c-.51-1.4-.95-2.92-1.19-4.7-9.46,1.18-38.96-5.47-53.96-21.21-23.23,5.21-51.34,9.4-75.36,7.06l-92.27-2451.92Z"/>
            <g class="cls-5">
              <polygon class="cls-4" points="5003.6 3784.92 5052.78 3784.92 4921.34 4172.18 4872.17 4172.18 5003.6 3784.92"/>
              <polygon class="cls-4" points="4896.73 3784.92 4945.9 3784.92 4814.47 4172.18 4765.29 4172.18 4896.73 3784.92"/>
              <polygon class="cls-4" points="4789.85 3784.92 4839.03 3784.92 4707.59 4172.18 4658.42 4172.18 4789.85 3784.92"/>
              <polygon class="cls-4" points="4682.97 3784.92 4732.15 3784.92 4600.72 4172.18 4551.54 4172.18 4682.97 3784.92"/>
              <polygon class="cls-4" points="4576.1 3784.92 4625.28 3784.92 4493.84 4172.18 4444.67 4172.18 4576.1 3784.92"/>
              <polygon class="cls-4" points="4469.22 3784.92 4518.4 3784.92 4386.97 4172.18 4337.79 4172.18 4469.22 3784.92"/>
              <polygon class="cls-4" points="4362.35 3784.92 4411.52 3784.92 4280.09 4172.18 4230.92 4172.18 4362.35 3784.92"/>
              <polygon class="cls-4" points="4255.47 3784.92 4304.65 3784.92 4173.22 4172.18 4124.04 4172.18 4255.47 3784.92"/>
              <polygon class="cls-4" points="4148.6 3784.92 4197.77 3784.92 4066.34 4172.18 4017.17 4172.18 4148.6 3784.92"/>
              <polygon class="cls-4" points="4041.72 3784.92 4090.9 3784.92 3959.47 4172.18 3910.29 4172.18 4041.72 3784.92"/>
              <polygon class="cls-4" points="3934.85 3784.92 3984.02 3784.92 3852.59 4172.18 3803.41 4172.18 3934.85 3784.92"/>
              <polygon class="cls-4" points="3827.97 3784.92 3877.15 3784.92 3745.72 4172.18 3696.54 4172.18 3827.97 3784.92"/>
              <polygon class="cls-4" points="3721.1 3784.92 3770.27 3784.92 3638.84 4172.18 3589.66 4172.18 3721.1 3784.92"/>
              <polygon class="cls-4" points="3614.22 3784.92 3663.4 3784.92 3531.96 4172.18 3482.79 4172.18 3614.22 3784.92"/>
              <polygon class="cls-4" points="3507.35 3784.92 3556.52 3784.92 3425.09 4172.18 3375.91 4172.18 3507.35 3784.92"/>
              <polygon class="cls-4" points="3400.47 3784.92 3449.65 3784.92 3318.21 4172.18 3269.04 4172.18 3400.47 3784.92"/>
              <polygon class="cls-4" points="3293.6 3784.92 3342.77 3784.92 3211.34 4172.18 3162.16 4172.18 3293.6 3784.92"/>
              <polygon class="cls-4" points="3186.72 3784.92 3235.9 3784.92 3104.46 4172.18 3055.29 4172.18 3186.72 3784.92"/>
              <polygon class="cls-4" points="3079.85 3784.92 3129.02 3784.92 2997.59 4172.18 2948.41 4172.18 3079.85 3784.92"/>
              <polygon class="cls-4" points="2972.97 3784.92 3022.15 3784.92 2890.71 4172.18 2841.54 4172.18 2972.97 3784.92"/>
              <polygon class="cls-4" points="2866.1 3784.92 2915.27 3784.92 2783.84 4172.18 2734.66 4172.18 2866.1 3784.92"/>
              <polygon class="cls-4" points="2759.22 3784.92 2808.4 3784.92 2676.96 4172.18 2627.79 4172.18 2759.22 3784.92"/>
              <polygon class="cls-4" points="2652.34 3784.92 2701.52 3784.92 2570.09 4172.18 2520.91 4172.18 2652.34 3784.92"/>
              <polygon class="cls-4" points="2545.47 3784.92 2594.65 3784.92 2463.21 4172.18 2414.04 4172.18 2545.47 3784.92"/>
              <polygon class="cls-4" points="2438.59 3784.92 2487.77 3784.92 2356.34 4172.18 2307.16 4172.18 2438.59 3784.92"/>
              <polygon class="cls-4" points="2331.72 3784.92 2380.89 3784.92 2249.46 4172.18 2200.29 4172.18 2331.72 3784.92"/>
              <polygon class="cls-4" points="2224.84 3784.92 2274.02 3784.92 2142.59 4172.18 2093.41 4172.18 2224.84 3784.92"/>
              <polygon class="cls-4" points="2117.97 3784.92 2167.14 3784.92 2035.71 4172.18 1986.54 4172.18 2117.97 3784.92"/>
              <polygon class="cls-4" points="2011.09 3784.92 2060.27 3784.92 1928.84 4172.18 1879.66 4172.18 2011.09 3784.92"/>
              <polygon class="cls-4" points="1904.22 3784.92 1953.39 3784.92 1821.96 4172.18 1772.78 4172.18 1904.22 3784.92"/>
              <polygon class="cls-4" points="1797.34 3784.92 1846.52 3784.92 1715.09 4172.18 1665.91 4172.18 1797.34 3784.92"/>
              <polygon class="cls-4" points="1690.47 3784.92 1739.64 3784.92 1608.21 4172.18 1559.03 4172.18 1690.47 3784.92"/>
              <polygon class="cls-4" points="1583.59 3784.92 1632.77 3784.92 1501.33 4172.18 1452.16 4172.18 1583.59 3784.92"/>
              <polygon class="cls-4" points="1476.72 3784.92 1525.89 3784.92 1394.46 4172.18 1345.28 4172.18 1476.72 3784.92"/>
              <polygon class="cls-4" points="1369.84 3784.92 1419.02 3784.92 1287.58 4172.18 1238.41 4172.18 1369.84 3784.92"/>
              <polygon class="cls-4" points="1262.97 3784.92 1312.14 3784.92 1180.71 4172.18 1131.53 4172.18 1262.97 3784.92"/>
              <polygon class="cls-4" points="1156.09 3784.92 1205.27 3784.92 1073.83 4172.18 1024.66 4172.18 1156.09 3784.92"/>
              <polygon class="cls-4" points="1049.22 3784.92 1098.39 3784.92 966.96 4172.18 917.78 4172.18 1049.22 3784.92"/>
              <polygon class="cls-4" points="942.34 3784.92 991.52 3784.92 860.08 4172.18 810.91 4172.18 942.34 3784.92"/>
              <polygon class="cls-4" points="835.47 3784.92 884.64 3784.92 753.21 4172.18 704.03 4172.18 835.47 3784.92"/>
              <polygon class="cls-4" points="728.59 3784.92 777.77 3784.92 646.33 4172.18 597.16 4172.18 728.59 3784.92"/>
              <polygon class="cls-4" points="621.71 3784.92 670.89 3784.92 539.46 4172.18 490.28 4172.18 621.71 3784.92"/>
              <polygon class="cls-4" points="514.84 3784.92 564.02 3784.92 432.58 4172.18 383.41 4172.18 514.84 3784.92"/>
            </g>
          </g>
        </g>
      </g>
    </g>
  </g>
</svg>